<svg xmlns="http://www.w3.org/2000/svg" viewBox="0 0 36 36">
  <path d="m33.746 9q0 0.90783-0.3287 1.7061t-0.9235 1.4087q0.1252 0.36 0.1252 0.82957 0 1.1113-0.4069 2.113-0.407 1.0017-1.2052 1.8156h1.0487q0.8139 0 1.5339 0.31305 0.72 0.31304 1.2521 0.84521 0.5322 0.53218 0.8453 1.2522 0.313 0.72 0.313 1.5339v4.4922q0 0.79826-0.2974 1.5026-0.2974 0.70435-0.8296 1.2522v1.1896q0 1.393-0.5321 2.6217-0.5322 1.2287-1.4479 2.1444-0.9156 0.91565-2.1443 1.4478-1.2287 0.53217-2.6217 0.53217h-26.139l-1.9878-3.9756v-8.4052q0-0.86087 0.2113-1.667 0.2113-0.80608 0.5948-1.5261t0.9313-1.3304q0.5478-0.61043 1.2365-1.0644l-1.5026-2.6139q-0.1878-0.36-0.2661-0.69652-0.078-0.33652-0.078-0.66522 0-0.50087 0.1721-0.96261 0.1722-0.46174 0.4774-0.82174t0.7122-0.61826 0.8922-0.35217v-7.92q0-0.70435 0.2661-1.3148 0.266-0.61044 0.72-1.0722 0.4539-0.46174 1.0643-0.72782 0.6104-0.26609 1.3148-0.26609 0.7826 0 1.5496 0.3913l4.7269 2.9896h3.1931l4.7426-2.9896q0.3913-0.20347 0.7826-0.28956 0.3913-0.0861 0.7669-0.0861 0.5322 0 1.0331 0.16435 0.5008 0.16435 0.9156 0.46174t0.7357 0.71217q0.3208 0.41479 0.493 0.9h10.315v2.2539q0 1.2522-0.6183 2.2774-0.6182 1.0252-1.6356 1.6044z"/>
  <path d="m25.873 33.746-23.619-3.3652v-6.7617q0-0.78261 0.2504-1.4948 0.2505-0.71218 0.7044-1.2835t1.08-0.97826 1.3774-0.59478q0.1722 0 0.5478 0.15652 0.3757 0.15652 0.7513 0.32869 0.4383 0.21913 0.9391 0.48522l2.2227-1.1113h6.746q1.1427 0 2.2227 0.23478 0.313 0.0783 0.6808 0.36 0.3678 0.28174 0.6809 0.59478 0.3756 0.37565 0.7356 0.81391 0.5009 0.0157 0.9705 0.0783 0.4069 0.0626 0.8139 0.16434 0.4069 0.10174 0.6417 0.32087 0.9861 0.89218 1.6748 1.9252h2.2696v9.5948l-0.5635 0.53215z" fill="#8e562e"/>
  <path d="m13.586 26.499-3.4591-4.0383v-3.3339h9v3.3339l-3.4748 4.0383q-0.2192 0.26609-0.4852 0.38348-0.2661 0.11739-0.5479 0.11739-0.2817 0-0.5478-0.11739t-0.4852-0.38348z" fill="#a6a6a6"/>
  <path d="m17.045 32.603 2.0348-13.242q1.2991 0.29739 2.4417 0.89217 1.1426 0.59479 2.0974 1.4557v10.894zm-11.426 0v-13.336q0.2192-0.0626 0.4539-0.10174 0.2348-0.0391 0.4696-0.0391h3.5844l2.066 13.477z" fill="#613d30"/>
  <path d="m5.6191 27q-0.7043 0-1.3148 0.26609-0.6104 0.26608-1.0643 0.72-0.4539 0.45391-0.72 1.0722t-0.2661 1.3226 0.2661 1.1348q0.2661 0.43044 0.72 0.67305 0.4539 0.2426 1.0643 0.32869 0.6105 0.0861 1.3148 0.0861h6.7618l2.3478-1.5026-2.3478-2.8956-6.1357-1.1426q-0.1565-0.0313-0.3052-0.047-0.1487-0.01562-0.3209-0.01562zm20.254-12.944q0 0.14087-0.063 0.25044l-2.3947 4.1948q-0.6574 1.1426-1.5809 2.0896-0.9235 0.94696-2.0583 1.62-1.1348 0.67305-2.4417 1.0409-1.307 0.36783-2.7157 0.36783t-2.7-0.36783q-1.2913-0.36782-2.4182-1.033-1.127-0.66522-2.0583-1.5965-0.9313-0.93131-1.5887-2.0583l-2.4261-4.2574q-0.047-0.10957-0.047-0.25044 0-0.23478 0.1565-0.3913t0.4069-0.15652h1.6748v-3.3809l1.5966-1.6591-1.5966-5.0557q0-0.50087 0.3366-0.82956 0.3365-0.3287 0.7904-0.3287 0.1409 0 0.2739 0.0391t0.2583 0.10174l5.1026 3.2244h4.4921l5.1027-3.2244q0.1252-0.0626 0.2504-0.10174 0.1252-0.0391 0.2661-0.0391 0.4695 0 0.7982 0.3287 0.3287 0.32869 0.3287 0.79826l-1.9408 5.087 1.9408 1.6591v3.3809h1.6905q0.2347 0 0.3991 0.15652 0.1643 0.15652 0.1643 0.3913zm1.127 10.143v9.5478h1.127q0.9391 0 1.753-0.35218 0.8139-0.35217 1.4243-0.96261 0.6105-0.61043 0.9627-1.4243 0.3521-0.81392 0.3521-1.753v-5.0556z" fill="#757575"/>
  <path d="m16.873 19.127q0 0.46956-0.18 0.87652-0.18 0.40695-0.4852 0.71217t-0.7121 0.48522q-0.407 0.18-0.8766 0.18-0.4695 0-0.8765-0.18-0.4069-0.18-0.7122-0.48522-0.3052-0.30522-0.4774-0.71217-0.1721-0.40696-0.1721-0.87652 0-0.46957 0.1721-0.87653 0.1722-0.40695 0.4774-0.71217 0.3053-0.30522 0.7122-0.48522 0.407-0.18 0.8765-0.18 0.4696 0 0.8766 0.18 0.4069 0.18 0.7121 0.48522t0.4852 0.71217q0.18 0.40696 0.18 0.87653z"/>
  <path d="m25.873 19.69 4.5079 0.56348v1.6904q0 0.81391-0.3131 1.5261-0.313 0.71218-0.8452 1.2444-0.5322 0.53218-1.2522 0.84522t-1.5339 0.31304h-1.1269q-0.8139 0-1.5339-0.31304t-1.2522-0.84522q-0.5322-0.53217-0.8374-1.2444-0.3052-0.71217-0.3052-1.5261v-1.6904zm-7.3095-5.0713q0.5791 0 1.0956 0.21913 0.5166 0.21913 0.9 0.60261 0.3835 0.38348 0.6026 0.9 0.2192 0.51652 0.2192 1.0956t-0.2192 1.0956q-0.2191 0.51653-0.6026 0.9-0.3834 0.38348-0.9 0.60261-0.5165 0.21913-1.0956 0.21913h-1.127q-0.5791 0-1.0956-0.21913-0.5166-0.21913-0.9-0.60261-0.3835-0.38347-0.6026-0.9-0.2192-0.51652-0.2192-1.0956 0 0.57913-0.2191 1.0956-0.2191 0.51653-0.6026 0.9-0.3835 0.38348-0.8922 0.60261t-1.0878 0.21913h-1.127q-0.5791 0-1.0956-0.21913t-0.9-0.60261q-0.3835-0.38347-0.6026-0.9-0.2192-0.51652-0.2192-1.0956t0.2192-1.0956q0.2191-0.51652 0.6026-0.9t0.9-0.60261 1.0956-0.21913h1.6905l2.2382 0.56348 2.2539-0.56348z" fill="#fff"/>
  <path d="m21.381 20.254q0-0.46956 0.3287-0.79826 0.3287-0.32869 0.7826-0.32869h0.5635l1.1269 0.56347 1.127-0.56347h3.9443q0.4539 0 0.7904 0.32869 0.3366 0.3287 0.3366 0.79826z" fill="#e5e5e5"/>
  <path d="m30.944 27q-0.36 0-0.6652-0.13304-0.3052-0.13305-0.5321-0.36-0.227-0.22696-0.36-0.53218-0.1331-0.30521-0.1331-0.66521v-4.4922q0-0.34435 0.1331-0.65739 0.133-0.31304 0.36-0.54 0.2269-0.22696 0.5321-0.36t0.6652-0.13304h1.1114q0.3443 0 0.6573 0.13304 0.3131 0.13304 0.54 0.36 0.227 0.22696 0.36 0.54 0.1331 0.31304 0.1331 0.65739v4.4922q0 0.36-0.1331 0.66521-0.133 0.30522-0.36 0.53218-0.2269 0.22695-0.54 0.36-0.313 0.13304-0.6573 0.13304zm-7.3252 5.6504h-7.873v-1.1426q0-0.70435 0.2661-1.3226t0.7278-1.0722q0.4617-0.45391 1.0722-0.72 0.6104-0.26608 1.3148-0.26608h1.1269q0.7044 0 1.3148 0.26608 0.6104 0.26609 1.0643 0.72 0.454 0.45392 0.72 1.0722 0.2661 0.61826 0.2661 1.3226z" fill="#ccc"/>
  <path d="m16.873 14.619-1.7217 2.0348q-0.2191 0.21913-0.5322 0.21913-0.1408 0-0.2817-0.0469-0.1409-0.047-0.2504-0.17218l-1.7061-2.0348z" fill="#e84757"/>
  <path d="m25.873 19.127q-0.4695 0-0.7982 0.32869-0.3287 0.3287-0.3287 0.79826v0.56348q0 0.23478-0.1644 0.39913-0.1643 0.16435-0.3991 0.16435t-0.3991-0.16435q-0.1644-0.16435-0.1644-0.39913v-0.56348q0-0.46956-0.3287-0.79826-0.3287-0.32869-0.7982-0.32869z" fill="#d8b094"/>
  <path d="m24.183 18q-0.2348 0-0.3991-0.16435-0.1644-0.16435-0.1644-0.39913 0-0.76695 0.3366-1.4556 0.3365-0.6887 0.9939-1.2209 0.4539-0.36 0.6887-0.83739 0.2347-0.47739 0.2347-0.97826 0-0.23478 0.1644-0.39913 0.1643-0.16435 0.3991-0.16435t0.3992 0.16435q0.1643 0.16435 0.1643 0.39913 0 0.76695-0.3365 1.4556t-0.9939 1.2209q-0.4539 0.37565-0.6887 0.84522-0.2348 0.46956-0.2348 0.97043 0 0.23478-0.1644 0.39913-0.1643 0.16435-0.3991 0.16435zm3.3809 0q-0.2348 0-0.3992-0.16435-0.1643-0.16435-0.1643-0.39913 0-0.76695 0.3365-1.4556t0.9939-1.2209q0.4539-0.36 0.6887-0.83739t0.2348-0.97826q0-0.23478 0.1644-0.39913 0.1643-0.16435 0.3991-0.16435t0.3991 0.16435q0.1644 0.16435 0.1644 0.39913 0 0.76695-0.3444 1.4556-0.3443 0.6887-0.9861 1.2209-0.4539 0.37565-0.6887 0.84522-0.2347 0.46956-0.2347 0.97043 0 0.23478-0.1644 0.39913-0.1643 0.16435-0.3991 0.16435z" fill="#f7d7c4"/>
  <path d="m19.91 8.7183 3.7095 1.4087v2.2539q0 0.70435-0.2661 1.3148-0.266 0.61044-0.72 1.0644-0.4539 0.45391-1.0643 0.72t-1.3148 0.26609h-2.2539q-0.4696 0-0.8765-0.17218-0.407-0.17217-0.7122-0.47739t-0.4852-0.71217q-0.18-0.40696-0.18-0.87652 0-0.46957-0.3287-0.79826-0.3287-0.3287-0.7983-0.3287-0.4539 0-0.7904 0.3287-0.3365 0.32869-0.3365 0.79826 0 0.46956-0.1722 0.87652-0.1722 0.40695-0.4774 0.71217t-0.7122 0.47739q-0.4069 0.17218-0.8765 0.17218h-2.2539q-0.7043 0-1.3148-0.26609-0.6104-0.26609-1.0722-0.72-0.4617-0.45391-0.7278-1.0644-0.2661-0.61043-0.2661-1.3148v-2.2539l3.6626-1.4087 3.0992 1.4087q0.4539 0 0.7826 0.32869 0.3287 0.3287 0.3287 0.79826h2.2539q0-0.46956 0.3287-0.79826 0.3287-0.32869 0.7982-0.32869z" fill="#2b2b2b"/>
  <path d="m16.873 11.254v2.2539q0 0.45391 0.3287 0.7826 0.3287 0.3287 0.7983 0.3287l1.127-0.56348 1.1269 0.56348q0.4696 0 0.8765-0.17217 0.407-0.17218 0.7122-0.47739 0.3052-0.30522 0.4774-0.71218t0.1722-0.87652v-1.127zm-4.4921 0v2.2539q0 0.45391-0.3366 0.7826-0.3365 0.3287-0.7904 0.3287l-1.1269-0.56348-1.127 0.56348q-0.4696 0-0.8765-0.17217-0.407-0.17218-0.7122-0.47739-0.3052-0.30522-0.4852-0.71218t-0.18-0.87652v-1.127zm-2.927-4.68-3.8348 2.4261v-5.6191l3.8348 2.4261q0.2035 0.12521 0.2035 0.37565 0 0.26609-0.2035 0.3913zm10.346 0 3.8191 2.4261v-5.6191l-3.8191 2.4261q-0.2191 0.12521-0.2191 0.37565 0 0.26609 0.2191 0.3913z" fill="#a6a6a6"/>
  <path d="m9 14.619v-1.1113q0-0.46957 0.3287-0.79826 0.3287-0.3287 0.7983-0.3287 0.4695 0 0.7982 0.3287 0.3287 0.32869 0.3287 0.79826v1.1113zm9 0v-1.1113q0-0.46957 0.3287-0.79826 0.3287-0.3287 0.7983-0.3287 0.4695 0 0.7982 0.3287 0.3287 0.32869 0.3287 0.79826v1.1113z" fill="#383838"/>
  <path d="m27 6.7461q-0.4696 0-0.8765 0.18-0.407 0.18-0.7122 0.48521-0.3052 0.30522-0.4852 0.71218-0.18 0.40695-0.18 0.87652h6.7461q0 0.46957-0.1722 0.87652-0.1722 0.40696-0.4774 0.71218-0.3052 0.30521-0.7122 0.48521-0.4069 0.18-0.8765 0.18h-5.6348v-1.127h-18v-3.3809h18q0-0.46957 0.18-0.87652 0.18-0.40696 0.4852-0.71218 0.3053-0.30522 0.7122-0.47739 0.407-0.17217 0.8765-0.17217h7.8731q0 0.46956-0.18 0.87652-0.18 0.40695-0.4852 0.71217t-0.7122 0.47739q-0.407 0.17218-0.8765 0.17218z" fill="#e81224"/>
  <path d="m25.31 29.254q0.4695 0 0.7982 0.3287 0.3287 0.32869 0.3287 0.79826v1.127h-23.619v-1.127q0-0.46957 0.3287-0.79826 0.3287-0.3287 0.7982-0.3287h2.7079q1.2052 0 2.2774-0.46956 1.0721-0.46957 1.9956-1.2522 0.2974-0.25043 0.6652-0.3913 0.3679-0.14087 0.7905-0.14087 0.2191 0 0.4539 0.047 0.3913 0.0783 0.72 0.28956 0.3287 0.21131 0.5635 0.52435 0.2347 0.31304 0.3678 0.69652 0.133 0.38348 0.133 0.79044 0-0.40696 0.1331-0.79044 0.133-0.38348 0.3678-0.69652t0.5635-0.52435q0.3287-0.2113 0.7356-0.28956 0.2348-0.047 0.4539-0.047 0.4227 0 0.7905 0.14087t0.6652 0.3913q0.9235 0.78261 1.9956 1.2522 1.0722 0.46956 2.2774 0.46956z" fill="#f2f2f2"/>
  <path d="m12.616 28.143q0.3756 0.0783 0.626 0.42261 0.2505 0.34435 0.2505 0.78261v1.033h-6.84q1.3148 0 2.5826-0.50087t2.4104-1.487q0.094-0.0783 0.2818-0.17217 0.1878-0.0939 0.4539-0.0939 0.1565 0 0.2348 0.0156zm4.0226 0q0.078-0.0156 0.2347-0.0156 0.2661 0 0.454 0.0939 0.1878 0.0939 0.2817 0.17217 1.1426 0.98609 2.4026 1.487t2.5904 0.50087h-6.8556v-1.033q0-0.43826 0.2582-0.78261 0.2583-0.34435 0.634-0.42261z" fill="#ccc"/>
  <path d="m27 31.508-12.381 1.1113-12.365-1.1113v-1.127h11.238l1.1269 0.56348 1.127-0.56348h11.254z" fill="#0078d7"/>
  <path d="m15.746 33.746-1.127-1.127-1.1269 1.127h-10.111l-1.127-2.2383h24.746l-1.127 2.2383z" fill="#0063b1"/>
  <path d="m15.746 31.508-1.127 1.1113-1.1269-1.1113v-1.127h2.2539z" fill="#0037da"/>
  <path d="m15.746 33.746h-2.2539v-2.2383h2.2539z" fill="#0027b4"/>
</svg>
