<?xml version='1.0' encoding='ASCII'?>
<svg width="2300" height="2156" preserveAspectRatio="xMinYMin slice" viewBox="256 -431 2300 2156" version="1.1" xmlns="http://www.w3.org/2000/svg">
  <path d="M256,-431 v359 q0,80 17,156.5 q17,76.5 50,147 q33,70.5 80.5,133.5 q47.5,63 109.5,114 q-41,117 -41,240 v791 q0,44 17,83 q17,39 46,68.5 q29,29.5 68.5,46.5 q39.5,17 83.5,17 q61,0 111,-32 l204,-129 q93,18 188,18 q95,0 188,-18 l209,132 q23,14 51.5,21.5 q28.5,7.5 54.5,7.5 q44,0 83.5,-17 q39.5,-17 69,-46.5 q29.5,-29.5 46.5,-68.5 q17,-39 17,-83 v-144 h647 v-144 q0,-78 -38.5,-144 q-38.5,-66 -105.5,-105 v-38 q0,-59 -22.5,-111.5 q-22.5,-52.5 -61.5,-91.5 q-39,-39 -91.5,-62 q-52.5,-23 -111.5,-23 h-220 q-4,-43 -13.5,-85 q-9.5,-42 -23.5,-83 q61,-51 109,-113.5 q48,-62.5 81,-133.5 q33,-71 50,-148 q17,-77 17,-156 v-359 h-1869 Z" fill="#000000" transform="matrix(1,0,0,-1,0,1294)"/>
  <path d="M1632,943 q14,-7 39,-21 q25,-14 51,-31 q26,-17 48,-34.5 q22,-17.5 30,-30.5 l-35,-35 q0,-45 -13,-98 q-13,-53 -40,-98 q-27,-45 -67.5,-75 q-40.5,-30 -94.5,-30 h-719 q-52,0 -92.5,30.5 q-40.5,30.5 -68,76 q-27.5,45.5 -41.5,98 q-14,52.5 -14,96.5 v72 l114,80 h903 Z M568,334 q37,38 79.5,67 q42.5,29 90.5,51 l785,-471 l-45,-268 h-289 q0,0 -15.5,4.5 q-15.5,4.5 -38.5,11 q-23,6.5 -50,14 q-27,7.5 -51,14.5 q-24,7 -41.5,12 q-17.5,5 -21.5,6 l-378,376 l-25,183 Z M1693,1581 q29,0 50.5,-21 q21.5,-21 21.5,-50 v-293 h-1150 v293 q0,29 21.5,50 q21.5,21 50.5,21 q8,0 17.5,-2 q9.5,-2 16.5,-7 l326,-206 h287 l326,206 q6,4 15.5,6.5 q9.5,2.5 17.5,2.5 Z" fill="#757575" transform="matrix(1,0,0,-1,0,1294)"/>
  <path d="M1981,-287 h-503 l-740,739 q56,26 115.5,38.5 q59.5,12.5 121.5,12.5 h431 q119,0 223.5,-45.5 q104.5,-45.5 182.5,-123.5 q78,-78 123.5,-182.5 q45.5,-104.5 45.5,-223.5 v-215 Z M400,-72 q0,115 43.5,220 q43.5,105 124.5,186 l621,-621 h-789 v215 Z" fill="#1F1F1F" transform="matrix(1,0,0,-1,0,1294)"/>
  <path d="M668,1184 l-53,32 v293 l245,-155 q13,-8 13,-24 q0,-17 -13,-25 l-192,-121 Z M1521,1305 q-14,9 -14,25 q0,15 14,24 l244,155 v-292 l-50,-35 l-194,123 Z" fill="#A6A6A6" transform="matrix(1,0,0,-1,0,1294)"/>
  <path d="M903,719 q-30,0 -51,21 q-21,21 -21,51 v72 q0,29 21.5,50.5 q21.5,21.5 50.5,21.5 q29,0 50.5,-21.5 q21.5,-21.5 21.5,-50.5 v-72 q0,-30 -21,-51 q-21,-21 -51,-21 Z M1478,719 q-30,0 -51,21 q-21,21 -21,51 v72 q0,29 21.5,50.5 q21.5,21.5 50.5,21.5 q29,0 50.5,-21.5 q21.5,-21.5 21.5,-50.5 v-72 q0,-30 -21,-51 q-21,-21 -51,-21 Z" fill="#000000" transform="matrix(1,0,0,-1,0,1294)"/>
  <path d="M2412,1222 q0,-30 -11.5,-56 q-11.5,-26 -31,-45.5 q-19.5,-19.5 -45.5,-31 q-26,-11.5 -56,-11.5 h-287 q-30,0 -56,-11 q-26,-11 -45.5,-30.5 q-19.5,-19.5 -31,-45.5 q-11.5,-26 -11.5,-56 h431 q0,-30 -11,-56 q-11,-26 -30.5,-45.5 q-19.5,-19.5 -45.5,-31 q-26,-11.5 -56,-11.5 h-360 v72 h-1150 v215 l116,90 h910 l124,-90 q0,30 11.5,56 q11.5,26 31,45.5 q19.5,19.5 45.5,31 q26,11.5 56,11.5 h503 Z" fill="#E81224" transform="matrix(1,0,0,-1,0,1294)"/>
  <path d="M1550,575 q43,0 81.5,16 q38.5,16 67.5,44 q29,28 46.5,66 q17.5,38 19.5,81 v-63 q0,-119 -45,-224 q-45,-105 -123,-183 q-78,-78 -183,-123 q-105,-45 -224,-45 q-119,0 -223.5,45.5 q-104.5,45.5 -182.5,123.5 q-78,78 -123.5,182.5 q-45.5,104.5 -45.5,223.5 v63 q1,-43 19,-81 q18,-38 47,-66 q29,-28 67.5,-44 q38.5,-16 82.5,-16 h144 q27,0 48.5,11 q21.5,11 41,24.5 q19.5,13.5 41,25 q21.5,11.5 48.5,11.5 q12,0 24.5,0.5 q12.5,0.5 24.5,0.5 q23,0 45.5,-3.5 q22.5,-3.5 43.5,-17.5 q14,-9 27,-18.5 q13,-9.5 26.5,-17 q13.5,-7.5 28,-12 q14.5,-4.5 32.5,-4.5 h144 Z M1190,1438 q161,0 308.5,-56.5 q147.5,-56.5 266.5,-164.5 v-139 h-1150 v139 q119,107 266.5,164 q147.5,57 308.5,57 Z" fill="#383838" transform="matrix(1,0,0,-1,0,1294)"/>
</svg>
