<svg xmlns="http://www.w3.org/2000/svg" viewBox="0 0 36 36">
  <path d="m29.254 13.508q1.3931 0 2.6218 0.53217 1.2286 0.53217 2.1443 1.4478 0.9157 0.91565 1.4478 2.1443 0.5322 1.2287 0.5322 2.6217v4.4922h-2.4417l-0.9392 0.93913v0.3913l1.127 1.1113v0.93913q0 1.1583-0.4461 2.1835-0.4461 1.0252-1.2052 1.7922t-1.7844 1.2052q-1.0252 0.43826-2.1834 0.43826h-10.127q-0.36 0-0.7043-0.0391-0.3444-0.0391-0.6887-0.13305l-1.1583 2.4261h-15.449v-18q0-1.1583 0.4461-2.207 0.4461-1.0487 1.2913-1.847-0.2817-0.37566-0.587-0.74348-0.3052-0.36783-0.5634-0.75913-0.2583-0.39131-0.4227-0.82174-0.1643-0.43044-0.1643-0.93131 0-0.67304 0.2974-1.26 0.2974-0.58695 0.8296-0.99391v-5.6191q0-0.57913 0.2191-1.0956t0.6026-0.9 0.9-0.60261 1.0956-0.21913q0.2818 0 0.634 0.0704 0.3521 0.0704 0.6026 0.21131l3.3026 1.9722h2.1443l3.3183-1.9722q0.2504-0.15652 0.6026-0.21913 0.3522-0.0626 0.6339-0.0626 0.6417 0 1.2131 0.27391 0.5713 0.27392 0.9782 0.77479 0.5948-0.50087 1.3383-0.77479 0.7435-0.27391 1.5417-0.27391 0.9235 0 1.7452 0.36 0.8218 0.36 1.4322 0.97043 0.6104 0.61044 0.9626 1.4322t0.3522 1.7452v7.6696l-1.3148 1.3304z"/>
  <path d="m16.873 12.381q0.3757-0.42261 0.8531-0.9t0.9782-0.95478q0.5009-0.47739 1.0253-0.90783 0.5243-0.43043 0.9939-0.74348l1.7687 1.2522v1.127l-4.4922 4.4922-2.2539 10.127h-13.492v-7.873q0-0.65739 0.2113-1.2052 0.2113-0.54782 0.587-0.97043 0.3756-0.42261 0.9-0.71218 0.5243-0.28956 1.1348-0.43043l10.659-2.3009z" fill="#757575"/>
  <path d="m20.254 2.2539q0.4696 0 0.8765 0.18 0.407 0.18 0.7122 0.48522t0.4774 0.71217q0.1722 0.40696 0.1722 0.87653v5.6191h-3.3652v-3.6939q-0.5166-0.31304-0.8218-0.82174-0.3052-0.50869-0.3052-1.1035 0-0.46957 0.1722-0.87653 0.1721-0.40695 0.4774-0.71217 0.3052-0.30522 0.72-0.48522 0.4147-0.18 0.8843-0.18z" fill="#ccc"/>
  <path d="m2.2539 22.508v-4.5078q0-0.65739 0.2113-1.2052 0.2113-0.54782 0.587-0.97043 0.3756-0.42261 0.9-0.71218 0.5243-0.28956 1.1348-0.43043l10.659-2.3009h1.1269v8.4365q0 0.0156-0.055 0.25826-0.055 0.24261-0.1253 0.54783-0.07 0.30522-0.1252 0.5713-0.055 0.26609-0.07 0.31305z" fill="#ffb900"/>
  <path d="m13.492 15.183-3.9287 3.9444-3.9444-3.9444z" fill="#a6a6a6"/>
  <path d="m29.254 24.746q0.4539 0 0.7904 0.33652 0.3366 0.33652 0.3366 0.79043h-4.5079q-0.4695 0-0.8765 0.18-0.4069 0.18-0.7122 0.48522-0.3052 0.30522-0.4852 0.71217-0.18 0.40696-0.18 0.87653h-2.2382v-3.3809z" fill="#f03a17"/>
  <path d="m25.873 22.492 1.0174-1.2522 1.2366 1.2522-2.254 2.2539zm2.254 0 1.033-1.2522 1.2209 1.2522-2.2539 2.2539zm2.2539 0 1.0487-1.2522 1.1895 1.2522-2.2382 2.2539zm-3.3809 3.3809 2.2539 2.2539-1.3774 0.93913-0.8765-0.93913zm2.2539 0 2.2383 2.2539-1.2992 0.93913-0.9391-0.93913z" fill="#fff"/>
  <path d="m25.31 22.508q-0.5792 0-1.0957 0.21913t-0.9 0.60261q-0.3835 0.38347-0.6026 0.89217-0.2191 0.50869-0.2191 1.0878 0 0.57913 0.2191 1.0956t0.6026 0.9 0.9 0.60261 1.0957 0.21913h6.1826q0 0.70434-0.2661 1.3148-0.2661 0.61043-0.72 1.0722t-1.0644 0.72783q-0.6104 0.26609-1.3147 0.26609h-10.127q-0.6887 0-1.3148-0.27392-0.6261-0.27391-1.0956-0.75913l-1.5653 3.2713h-11.77v-7.873l1.3304-1.3461 2.6766 0.23478-0.3131-2.6296 1.8313-1.847 2.7548 0.51652-0.313-2.833q0.72-0.34435 1.1895-0.56348 0.4696-0.21913 0.9079-0.33652 0.4382-0.1174 0.9626-0.15653 0.5243-0.0391 1.3382-0.0391 0-0.46956 0.18-0.87652 0.18-0.40695 0.4852-0.71217 0.3053-0.30522 0.7122-0.48522 0.407-0.18 0.8765-0.18h3.3809q0.5948 0 1.1113 0.30522t0.8296 0.82174h7.0591q0.9235 0 1.7452 0.36 0.8218 0.36 1.4322 0.97043 0.6104 0.61044 0.9626 1.4322 0.3522 0.82173 0.3522 1.7452v2.2539z" fill="#8cbd18"/>
  <path d="m22.492 18q0 0.70435-0.2661 1.3148-0.2661 0.61044-0.72 1.0722t-1.0644 0.72782q-0.6104 0.26609-1.3147 0.26609-0.7044 0-1.3148-0.26609-0.6105-0.26608-1.0722-0.72782t-0.7278-1.0722q-0.2661-0.61043-0.2661-1.3148h2.2539l1.127 0.65739 1.1269-0.65739z" fill="#73aa24"/>
  <path d="m12.162 19.91q0.2348 0.23478 0.36 0.54782 0.1253 0.31304 0.1253 0.64174 0 0.34435-0.1331 0.64957-0.133 0.30521-0.36 0.54-0.2269 0.23478-0.5322 0.36782-0.3052 0.13305-0.6495 0.13305-0.6887 0-1.1896-0.50087l-2.0035-2.0035q0.5948-0.59479 1.1661-1.2209 0.5713-0.62609 1.2757-1.1113zm-4.226 4.2104q0.2347 0.23478 0.36 0.54783 0.1252 0.31304 0.1252 0.64174 0 0.36-0.1331 0.66521-0.133 0.30522-0.3521 0.54-0.2192 0.23479-0.5322 0.36783-0.3131 0.13304-0.6574 0.13304-0.6887 0-1.1896-0.50087l-1.9722-1.9878 2.3635-2.3948z" fill="#bad80a"/>
  <path d="m3.3809 2.8174q0-0.23478 0.1643-0.39913 0.1644-0.16435 0.3991-0.16435 0.078 0 0.3679 0.1487 0.2895 0.14869 0.6808 0.36782 0.3913 0.21914 0.8453 0.49305 0.4539 0.27391 0.8687 0.52435 0.4147 0.25043 0.7278 0.44608 0.313 0.19566 0.4382 0.25826h3.3809q0.1252-0.0626 0.4383-0.25826 0.313-0.19565 0.7278-0.44608 0.4148-0.25044 0.8687-0.52435t0.8452-0.49305q0.3913-0.21913 0.6809-0.36782 0.2895-0.1487 0.3678-0.1487 0.2348 0 0.3991 0.16435 0.1644 0.16435 0.1644 0.39913v7.3096q0.094 0 0.2269-8e-3 0.1331-8e-3 0.274-8e-3 0.2347 0 0.4304 0.0626 0.1956 0.0626 0.1956 0.31305 0 0.0783-0.1565 0.38347-0.1565 0.30522-0.3835 0.70435-0.2269 0.39913-0.4695 0.81392-0.2426 0.41478-0.3992 0.69652l-0.1878 0.29739q-0.4382 0.78261-1.0487 1.393-0.6104 0.61044-1.3539 1.0409-0.7435 0.43044-1.5809 0.65739-0.8373 0.22696-1.7295 0.22696-0.8765 0-1.7139-0.22696-0.8374-0.22695-1.5731-0.64956-0.7356-0.42261-1.3539-1.033-0.6183-0.61043-1.0565-1.3774-0.047-0.0939-0.1878-0.32869-0.1409-0.23479-0.3209-0.54-0.18-0.30522-0.3757-0.64174-0.1956-0.33652-0.36-0.63391-0.1643-0.2974-0.266-0.5087-0.1018-0.2113-0.1018-0.27391 0-0.25044 0.1957-0.31305 0.1956-0.0626 0.4304-0.0626 0.1409 0 0.2739 8e-3 0.1331 8e-3 0.227 8e-3z" fill="#757575"/>
  <path d="m7.3096 5.7287v1.0174h-3.9287v-3.6157l3.7095 2.207q0.2192 0.12522 0.2192 0.39131zm4.5078 0q0-0.26609 0.2191-0.39131l3.7096-2.207v3.6157h-3.9287z" fill="#a6a6a6"/>
  <path d="m6.1826 7.8731q0.2348 0 0.3991 0.16435 0.1644 0.16435 0.1644 0.39913v1.127q0 0.23478-0.1644 0.39913-0.1643 0.16435-0.3991 0.16435t-0.3991-0.16435q-0.1644-0.16435-0.1644-0.39913v-1.127q0-0.23478 0.1644-0.39913 0.1643-0.16435 0.3991-0.16435zm6.7617 0q0.2192 0 0.3835 0.17218 0.1644 0.17217 0.1644 0.3913v1.127q0 0.21913-0.1644 0.3913-0.1643 0.17218-0.3835 0.17218-0.2347 0-0.3991-0.16435-0.1643-0.16435-0.1643-0.39913v-1.127q0-0.23478 0.1643-0.39913 0.1644-0.16435 0.3991-0.16435zm-2.2539 6.1826q0 0.46957-0.3287 0.79826-0.3287 0.3287-0.7982 0.3287-0.4696 0-0.7983-0.3287-0.3287-0.32869-0.3287-0.79826 0-0.45391 0.3365-0.78261 0.3366-0.32869 0.7905-0.32869t0.7904 0.32869q0.3365 0.3287 0.3365 0.78261zm8.4366 5.0713q-0.4696 0-0.7983-0.3287-0.3287-0.32869-0.3287-0.79826h2.2539q0 0.46957-0.3287 0.79826-0.3287 0.3287-0.7982 0.3287zm10.675-1.127q0.2348 0 0.407 0.17217l1.127 1.1113q0.1565 0.15652 0.1565 0.40695 0 0.21914-0.1644 0.39131-0.1643 0.17217-0.3991 0.17217-0.2191 0-0.3913-0.17217l-1.127-1.127q-0.1721-0.17217-0.1721-0.3913t0.1721-0.39131q0.1722-0.17217 0.3913-0.17217z"/>
  <path d="m11.817 11.254q0.3443 0 0.6574 0.13305 0.313 0.13304 0.5322 0.36782 0.2191 0.23479 0.3521 0.54 0.1331 0.30522 0.1331 0.64957t-0.1331 0.64956q-0.133 0.30522-0.36 0.53218-0.2269 0.22695-0.5321 0.36-0.3053 0.13304-0.6496 0.13304h-0.5635q-0.6887 0-1.1739-0.45391-0.4852-0.45392-0.5165-1.1426-0.016 0.34435-0.1565 0.63391-0.1409 0.28957-0.3679 0.50087-0.2269 0.21131-0.5321 0.33652-0.3053 0.12522-0.634 0.12522h-0.5634q-0.3444 0-0.6496-0.13304-0.3052-0.13305-0.54-0.36-0.2348-0.22696-0.3678-0.53218-0.1331-0.30521-0.1331-0.64956t0.1331-0.64957q0.133-0.30521 0.3678-0.54 0.2348-0.23478 0.54-0.36782 0.3052-0.13305 0.6496-0.13305h0.5634q0.3444 0 0.6574 0.13305 0.3131 0.13304 0.54 0.36 0.227 0.22695 0.36 0.54 0.1331 0.31304 0.1331 0.65739 0-0.34435 0.133-0.65739 0.1331-0.31305 0.36-0.54 0.227-0.22696 0.5322-0.36 0.3052-0.13305 0.6652-0.13305z" fill="#fff"/>
  <path d="m10.236 12.6q-0.2504 0.34435-0.673 0.34435t-0.6731-0.34435l-1.0174-1.3461h3.3809z" fill="#e84757"/>
  <path d="m21.381 4.5078q0 0.36-0.1409 0.58695-0.1409 0.22696-0.3757 0.35218-0.2347 0.12521-0.5478 0.16434-0.313 0.0391-0.6574 0.0391-0.4069 0-0.8139-8e-3 -0.4069-8e-3 -0.8139-8e-3 -0.36 0-0.673 0.0391-0.3131 0.0391-0.5479 0.15652-0.2347 0.1174-0.3678 0.33653-0.133 0.21913-0.133 0.57913h3.9443q0 0.45391-0.3365 0.79043t-0.7904 0.33652h-15.746v-2.2539h12.365q0-0.45391 0.3365-0.78261 0.3365-0.32869 0.7904-0.32869z" fill="#e81224"/>
</svg>
