<?xml version='1.0' encoding='ASCII'?>
<svg width="2300" height="2300" preserveAspectRatio="xMinYMin slice" viewBox="256 -431 2300 2300" version="1.1" xmlns="http://www.w3.org/2000/svg">
  <path d="M2412,1294 q0,-58 -21,-109 q-21,-51 -59,-90 q8,-23 8,-53 q0,-71 -26,-135 q-26,-64 -77,-116 h67 q52,0 98,-20 q46,-20 80,-54 q34,-34 54,-80 q20,-46 20,-98 v-287 q0,-51 -19,-96 q-19,-45 -53,-80 v-76 q0,-89 -34,-167.5 q-34,-78.5 -92.5,-137 q-58.5,-58.5 -137,-92.5 q-78.5,-34 -167.5,-34 h-1670 l-127,254 v537 q0,55 13.5,106.5 q13.5,51.5 38,97.5 q24.5,46 59.5,85 q35,39 79,68 l-96,167 q-12,23 -17,44.5 q-5,21.5 -5,42.5 q0,32 11,61.5 q11,29.5 30.5,52.5 q19.5,23 45.5,39.5 q26,16.5 57,22.5 v506 q0,45 17,84 q17,39 46,68.5 q29,29.5 68,46.5 q39,17 84,17 q50,0 99,-25 l302,-191 h204 l303,191 q25,13 50,18.5 q25,5.5 49,5.5 q34,0 66,-10.5 q32,-10.5 58.5,-29.5 q26.5,-19 47,-45.5 q20.5,-26.5 31.5,-57.5 h659 v-144 q0,-80 -39.5,-145.5 q-39.5,-65.5 -104.5,-102.5 v-39 Z" fill="#000000" transform="matrix(1,0,0,-1,0,1438)"/>
  <path d="M1909,-287 l-1509,215 v432 q0,50 16,95.5 q16,45.5 45,82 q29,36.5 69,62.5 q40,26 88,38 q11,0 35,-10 q24,-10 48,-21 q28,-14 60,-31 l142,71 h431 q73,0 142,-15 q20,-5 43.5,-23 q23.5,-18 43.5,-38 q24,-24 47,-52 q32,-1 62,-5 q26,-4 52,-10.5 q26,-6.5 41,-20.5 q63,-57 107,-123 h145 v-613 l-36,-34 h-72 Z" fill="#8E562E" transform="matrix(1,0,0,-1,0,1438)"/>
  <path d="M1124,176 l-221,258 v213 h575 v-213 l-222,-258 q-14,-17 -31,-24.5 q-17,-7.5 -35,-7.5 q-18,0 -35,7.5 q-17,7.5 -31,24.5 Z" fill="#A6A6A6" transform="matrix(1,0,0,-1,0,1438)"/>
  <path d="M1345,-214 l130,846 q83,-19 156,-57 q73,-38 134,-93 v-696 h-420 Z M615,-214 v852 q14,4 29,6.5 q15,2.5 30,2.5 h229 l132,-861 h-420 Z" fill="#613D30" transform="matrix(1,0,0,-1,0,1438)"/>
  <path d="M615,144 q-45,0 -84,-17 q-39,-17 -68,-46 q-29,-29 -46,-68.5 q-17,-39.5 -17,-84.5 q0,-45 17,-72.5 q17,-27.5 46,-43 q29,-15.5 68,-21 q39,-5.5 84,-5.5 h432 l150,96 l-150,185 l-392,73 q-10,2 -19.5,3 q-9.5,1 -20.5,1 Z M1909,971 q0,-9 -4,-16 l-153,-268 q-42,-73 -101,-133.5 q-59,-60.5 -131.5,-103.5 q-72.5,-43 -156,-66.5 q-83.5,-23.5 -173.5,-23.5 q-90,0 -172.5,23.5 q-82.5,23.5 -154.5,66 q-72,42.5 -131.5,102 q-59.5,59.5 -101.5,131.5 l-155,272 q-3,7 -3,16 q0,15 10,25 q10,10 26,10 h107 v216 l102,106 l-102,323 q0,32 21.5,53 q21.5,21 50.5,21 q9,0 17.5,-2.5 q8.5,-2.5 16.5,-6.5 l326,-206 h287 l326,206 q8,4 16,6.5 q8,2.5 17,2.5 q30,0 51,-21 q21,-21 21,-51 l-124,-325 l124,-106 v-216 h108 q15,0 25.5,-10 q10.5,-10 10.5,-25 Z M1981,323 v-610 h72 q60,0 112,22.5 q52,22.5 91,61.5 q39,39 61.5,91 q22.5,52 22.5,112 v323 h-359 Z" fill="#757575" transform="matrix(1,0,0,-1,0,1438)"/>
  <path d="M1334,647 q0,-30 -11.5,-56 q-11.5,-26 -31,-45.5 q-19.5,-19.5 -45.5,-31 q-26,-11.5 -56,-11.5 q-30,0 -56,11.5 q-26,11.5 -45.5,31 q-19.5,19.5 -30.5,45.5 q-11,26 -11,56 q0,30 11,56 q11,26 30.5,45.5 q19.5,19.5 45.5,31 q26,11.5 56,11.5 q30,0 56,-11.5 q26,-11.5 45.5,-31 q19.5,-19.5 31,-45.5 q11.5,-26 11.5,-56 Z" fill="#000000" transform="matrix(1,0,0,-1,0,1438)"/>
  <path d="M1909,611 l288,-36 v-108 q0,-52 -20,-97.5 q-20,-45.5 -54,-79.5 q-34,-34 -80,-54 q-46,-20 -98,-20 h-72 q-52,0 -98,20 q-46,20 -80,54 q-34,34 -53.5,79.5 q-19.5,45.5 -19.5,97.5 v108 l287,36 Z M1442,935 q37,0 70,-14 q33,-14 57.5,-38.5 q24.5,-24.5 38.5,-57.5 q14,-33 14,-70 q0,-37 -14,-70 q-14,-33 -38.5,-57.5 q-24.5,-24.5 -57.5,-38.5 q-33,-14 -70,-14 h-72 q-37,0 -70,14 q-33,14 -57.5,38.5 q-24.5,24.5 -38.5,57.5 q-14,33 -14,70 q0,-37 -14,-70 q-14,-33 -38.5,-57.5 q-24.5,-24.5 -57,-38.5 q-32.5,-14 -69.5,-14 h-72 q-37,0 -70,14 q-33,14 -57.5,38.5 q-24.5,24.5 -38.5,57.5 q-14,33 -14,70 q0,37 14,70 q14,33 38.5,57.5 q24.5,24.5 57.5,38.5 q33,14 70,14 h108 l143,-36 l144,36 h108 Z" fill="#FFFFFF" transform="matrix(1,0,0,-1,0,1438)"/>
  <path d="M1622,575 q0,30 21,51 q21,21 50,21 h36 l72,-36 l72,36 h252 q29,0 50.5,-21 q21.5,-21 21.5,-51 h-575 Z" fill="#E5E5E5" transform="matrix(1,0,0,-1,0,1438)"/>
  <path d="M2233,144 q-23,0 -42.5,8.5 q-19.5,8.5 -34,23 q-14.5,14.5 -23,34 q-8.5,19.5 -8.5,42.5 v287 q0,22 8.5,42 q8.5,20 23,34.5 q14.5,14.5 34,23 q19.5,8.5 42.5,8.5 h71 q22,0 42,-8.5 q20,-8.5 34.5,-23 q14.5,-14.5 23,-34.5 q8.5,-20 8.5,-42 v-287 q0,-23 -8.5,-42.5 q-8.5,-19.5 -23,-34 q-14.5,-14.5 -34.5,-23 q-20,-8.5 -42,-8.5 h-71 Z M1765,-217 h-503 v73 q0,45 17,84.5 q17,39.5 46.5,68.5 q29.5,29 68.5,46 q39,17 84,17 h72 q45,0 84,-17 q39,-17 68,-46 q29,-29 46,-68.5 q17,-39.5 17,-84.5 v-73 Z" fill="#CCCCCC" transform="matrix(1,0,0,-1,0,1438)"/>
  <path d="M1334,935 l-110,-130 q-14,-14 -34,-14 q-9,0 -18,3 q-9,3 -16,11 l-109,130 h287 Z" fill="#E84757" transform="matrix(1,0,0,-1,0,1438)"/>
  <path d="M1909,647 q-30,0 -51,-21 q-21,-21 -21,-51 v-36 q0,-15 -10.5,-25.5 q-10.5,-10.5 -25.5,-10.5 q-15,0 -25.5,10.5 q-10.5,10.5 -10.5,25.5 v36 q0,30 -21,51 q-21,21 -51,21 h216 Z" fill="#D8B094" transform="matrix(1,0,0,-1,0,1438)"/>
  <path d="M1801,719 q-15,0 -25.5,10.5 q-10.5,10.5 -10.5,25.5 q0,49 21.5,93 q21.5,44 63.5,78 q29,23 44,53.5 q15,30.5 15,62.5 q0,15 10.5,25.5 q10.5,10.5 25.5,10.5 q15,0 25.5,-10.5 q10.5,-10.5 10.5,-25.5 q0,-49 -21.5,-93 q-21.5,-44 -63.5,-78 q-29,-24 -44,-54 q-15,-30 -15,-62 q0,-15 -10.5,-25.5 q-10.5,-10.5 -25.5,-10.5 Z M2017,719 q-15,0 -25.5,10.5 q-10.5,10.5 -10.5,25.5 q0,49 21.5,93 q21.5,44 63.5,78 q29,23 44,53.5 q15,30.5 15,62.5 q0,15 10.5,25.5 q10.5,10.5 25.5,10.5 q15,0 25.5,-10.5 q10.5,-10.5 10.5,-25.5 q0,-49 -22,-93 q-22,-44 -63,-78 q-29,-24 -44,-54 q-15,-30 -15,-62 q0,-15 -10.5,-25.5 q-10.5,-10.5 -25.5,-10.5 Z" fill="#F7D7C4" transform="matrix(1,0,0,-1,0,1438)"/>
  <path d="M1528,1312 l237,-90 v-144 q0,-45 -17,-84 q-17,-39 -46,-68 q-29,-29 -68,-46 q-39,-17 -84,-17 h-144 q-30,0 -56,11 q-26,11 -45.5,30.5 q-19.5,19.5 -31,45.5 q-11.5,26 -11.5,56 q0,30 -21,51 q-21,21 -51,21 q-29,0 -50.5,-21 q-21.5,-21 -21.5,-51 q0,-30 -11,-56 q-11,-26 -30.5,-45.5 q-19.5,-19.5 -45.5,-30.5 q-26,-11 -56,-11 h-144 q-45,0 -84,17 q-39,17 -68.5,46 q-29.5,29 -46.5,68 q-17,39 -17,84 v144 l234,90 l198,-90 q29,0 50,-21 q21,-21 21,-51 h144 q0,30 21,51 q21,21 51,21 l194,90 Z" fill="#2B2B2B" transform="matrix(1,0,0,-1,0,1438)"/>
  <path d="M1334,1150 v-144 q0,-29 21,-50 q21,-21 51,-21 l72,36 l72,-36 q30,0 56,11 q26,11 45.5,30.5 q19.5,19.5 30.5,45.5 q11,26 11,56 v72 h-359 Z M1047,1150 v-144 q0,-29 -21.5,-50 q-21.5,-21 -50.5,-21 l-72,36 l-72,-36 q-30,0 -56,11 q-26,11 -45.5,30.5 q-19.5,19.5 -31,45.5 q-11.5,26 -11.5,56 v72 h360 Z M860,1449 l-245,-155 v359 l245,-155 q13,-8 13,-24 q0,-17 -13,-25 Z M1521,1449 l244,-155 v359 l-244,-155 q-14,-8 -14,-24 q0,-17 14,-25 Z" fill="#A6A6A6" transform="matrix(1,0,0,-1,0,1438)"/>
  <path d="M831,935 v71 q0,30 21,51 q21,21 51,21 q30,0 51,-21 q21,-21 21,-51 v-71 h-144 Z M1406,935 v71 q0,30 21,51 q21,21 51,21 q30,0 51,-21 q21,-21 21,-51 v-71 h-144 Z" fill="#383838" transform="matrix(1,0,0,-1,0,1438)"/>
  <path d="M1981,1438 q-30,0 -56,-11.5 q-26,-11.5 -45.5,-31 q-19.5,-19.5 -31,-45.5 q-11.5,-26 -11.5,-56 h431 q0,-30 -11,-56 q-11,-26 -30.5,-45.5 q-19.5,-19.5 -45.5,-31 q-26,-11.5 -56,-11.5 h-360 v72 h-1150 v216 h1150 q0,30 11.5,56 q11.5,26 31,45.5 q19.5,19.5 45.5,30.5 q26,11 56,11 h503 q0,-30 -11.5,-56 q-11.5,-26 -31,-45.5 q-19.5,-19.5 -45.5,-30.5 q-26,-11 -56,-11 h-287 v0 Z" fill="#E81224" transform="matrix(1,0,0,-1,0,1438)"/>
  <path d="M1873,0 q30,0 51,-21 q21,-21 21,-51 v-72 h-1509 v72 q0,30 21,51 q21,21 51,21 h173 q77,0 145.5,30 q68.5,30 127.5,80 q19,16 42.5,25 q23.5,9 50.5,9 q14,0 29,-3 q25,-5 46,-18.5 q21,-13.5 36,-33.5 q15,-20 23.5,-44.5 q8.5,-24.5 8.5,-50.5 q0,26 8.5,50.5 q8.5,24.5 23.5,44.5 q15,20 36,33.5 q21,13.5 47,18.5 q15,3 29,3 q27,0 50.5,-9 q23.5,-9 42.5,-25 q59,-50 127.5,-80 q68.5,-30 145.5,-30 h173 v0 Z" fill="#F2F2F2" transform="matrix(1,0,0,-1,0,1438)"/>
  <path d="M1062,71 q24,-5 40,-27 q16,-22 16,-50 v-66 h-437 q84,0 165,32 q81,32 154,95 q6,5 18,11 q12,6 29,6 q10,0 15,-1 Z M1319,71 q5,1 15,1 q17,0 29,-6 q12,-6 18,-11 q73,-63 153.5,-95 q80.5,-32 165.5,-32 h-438 v66 q0,28 16.5,50 q16.5,22 40.5,27 Z" fill="#CCCCCC" transform="matrix(1,0,0,-1,0,1438)"/>
  <path d="M1981,-144 l-791,-71 l-790,71 v72 h718 l72,-36 l72,36 h719 v-72 Z" fill="#0078D7" transform="matrix(1,0,0,-1,0,1438)"/>
  <path d="M1262,-287 l-72,72 l-72,-72 h-646 l-72,143 h1581 l-72,-143 h-647 Z" fill="#0063B1" transform="matrix(1,0,0,-1,0,1438)"/>
  <path d="M1262,-144 l-72,-71 l-72,71 v72 h144 v-72 Z" fill="#0037DA" transform="matrix(1,0,0,-1,0,1438)"/>
  <path d="M1262,-287 h-144 v143 h144 v-143 Z" fill="#0027B4" transform="matrix(1,0,0,-1,0,1438)"/>
</svg>
