<svg xmlns="http://www.w3.org/2000/svg" viewBox="0 0 36 36">
  <path d="m0 36v-5.6191q0-1.8 0.5478-3.4983 0.5479-1.6983 1.6279-3.1539-1.08-1.8313-1.6279-3.8426-0.5478-2.0113-0.5478-4.14 0-2.1757 0.5635-4.187t1.5887-3.7565 2.4652-3.1852 3.1852-2.4652q1.7452-1.0252 3.7565-1.5887t4.187-0.56348q2.2852 0 4.4296 0.64174 2.1443 0.64174 3.9991 1.8235t3.3495 2.8487q1.4948 1.667 2.4653 3.733 1.2834 0.14087 2.3791 0.72 1.0956 0.57913 1.9017 1.4791t1.2679 2.0583q0.4617 1.1583 0.4617 2.4417v9h-2.2539q-0.5948 0-1.127-0.14087v2.3948h-1.6278q0.5009 1.6748 0.5009 3.3809v5.6191z"/>
  <path d="m4.993 23.917q-1.346-1.7687-2.0426-3.8583-0.6965-2.0896-0.6965-4.3122 0-1.127 0.1878-2.2383l2.8644-1.8157-1.8313-1.5652q0.8139-1.8 2.0974-3.2557 1.2835-1.4556 2.88-2.4809 1.5965-1.0252 3.4591-1.5809 1.8626-0.55566 3.8348-0.55566t3.8348 0.55566q1.8626 0.55565 3.4591 1.5809 1.5965 1.0252 2.8722 2.4809 1.2756 1.4557 2.1052 3.2557l-1.4087 1.5652 2.4574 1.8157q0.1878 1.1113 0.1878 2.2383 0 2.2226-0.7043 4.3122-0.7044 2.0896-2.0505 3.8583z" fill="#69eaff"/>
  <path d="m20.254 21.381q1.8626 0 3.4983 0.71217 1.6356 0.71218 2.8565 1.933t1.933 2.8565q0.7122 1.6356 0.7122 3.4983v3.3652h-5.6348l-1.7061-1.6904-1.6591 1.6904h-3.3809l-1.0956-0.70435-1.1583 0.70435h-3.3652l-1.5652-1.8157-1.8157 1.8157h-2.2539l-2.7078-6.7461q0.5165-1.2835 1.3696-2.3165 0.853-1.033 1.9408-1.7687 1.0879-0.73565 2.3713-1.1348 1.2835-0.39913 2.6609-0.39913z" fill="#f7630c"/>
  <path d="m20.254 21.381q1.7531 0 3.3652 0.64956 1.6122 0.64957 2.88 1.8704-1.2365 1.6435-2.88 2.8174l-1.2208 2.1756-2.1444-0.40695q-0.8296 0.28174-1.6669 0.46174-0.8374 0.18-1.714 0.25826l-1.1269 1.033-1.127-1.033q-0.8608-0.0783-1.7061-0.25826-0.8452-0.18-1.6591-0.46174l-2.2852 0.10956-1.0957-1.8783q-1.6434-1.1739-2.88-2.8174 1.2679-1.2209 2.8879-1.8704 1.62-0.64956 3.373-0.64956z" fill="#0099bc"/>
  <path d="m5.6191 30.381-1.7374 0.53217-1.6278-0.53217q0-1.753 0.6574-3.3809h2.7078z" fill="#8cbd18"/>
  <path d="m5.6191 33.746h-3.3652v-3.3652h3.3652z" fill="#ffb900"/>
  <path d="m16.873 29.207v4.5391h-2.2539v-4.5391q0.5635 0.047 1.127 0.047t1.1269-0.047z" fill="#e5e5e5"/>
  <path d="m7.873 26.718q1.5496 1.0956 3.3809 1.7687v5.2591h-3.3809zm12.381 1.7687q0.8922-0.3287 1.7374-0.76696t1.6278-1.0017v7.0278h-3.3652z" fill="#1f1f1f"/>
  <path d="m26.436 16.873q0.2348 0 0.3992 0.16435 0.1643 0.16435 0.1643 0.39913 0 0.0783-0.1643 0.39913-0.1644 0.32087-0.407 0.77478-0.2426 0.45392-0.54 0.97044t-0.5713 0.98609q-0.2739 0.46956-0.4852 0.82956t-0.2896 0.48522q-0.6887 1.1896-1.6278 2.1365t-2.0818 1.6122q-1.1426 0.66522-2.4339 1.0174-1.2913 0.35217-2.653 0.35217-1.3618 0-2.6452-0.35217-1.2835-0.35218-2.4105-1.0017-1.1269-0.64957-2.0739-1.5887-0.9469-0.93913-1.62-2.113-0.078-0.12522-0.2895-0.49305-0.2113-0.36782-0.4931-0.84521-0.2817-0.47739-0.5869-1.0017-0.3053-0.52435-0.5557-0.97826-0.2504-0.45392-0.4148-0.78261-0.1643-0.3287-0.1643-0.40696 0-0.21913 0.1721-0.3913 0.1722-0.17218 0.3914-0.17218h1.6904v-10.127q0-0.45392 0.3365-0.79044t0.7904-0.33652q0.2661 0 0.5322 0.15652l5.087 3.2244h4.5078l5.1026-3.2244q0.2661-0.15652 0.5165-0.15652 0.4539 0 0.7905 0.33652 0.3365 0.33652 0.3365 0.79044v10.127z" fill="#757575"/>
  <path d="m6.7461 12.381v-5.6348l3.8348 2.4261q0.094 0.0626 0.1487 0.17218 0.055 0.10956 0.055 0.21913 0 0.10956-0.055 0.21913-0.055 0.10956-0.1487 0.17217zm14.181-2.4261q-0.2192-0.14087-0.2192-0.3913 0-0.25044 0.2192-0.39131l3.8191-2.4261v5.6348z" fill="#a6a6a6"/>
  <path d="m11.254 13.508q0.4539 0 0.7904 0.32869 0.3366 0.3287 0.3366 0.78261v1.127q0 0.45391-0.3366 0.79043-0.3365 0.33652-0.7904 0.33652-0.4696 0-0.7982-0.32869-0.3287-0.3287-0.3287-0.79826v-1.127q0-0.45391 0.3365-0.78261 0.3365-0.32869 0.7904-0.32869zm10.127 2.2383q0 0.45391-0.3366 0.79043-0.3365 0.33652-0.7904 0.33652-0.4696 0-0.7982-0.32869-0.3287-0.3287-0.3287-0.79826v-1.127q0-0.45391 0.3365-0.78261 0.3365-0.32869 0.7904-0.32869t0.7904 0.32869q0.3366 0.3287 0.3366 0.78261zm-3.3809 6.7617q0 0.46956-0.18 0.87652-0.18 0.40695-0.4852 0.71217t-0.7122 0.47739q-0.4069 0.17218-0.8765 0.17218t-0.8765-0.17218q-0.407-0.17217-0.7122-0.47739t-0.4852-0.71217q-0.18-0.40696-0.18-0.87652 0-0.46957 0.18-0.87653 0.18-0.40695 0.4852-0.71217t0.7122-0.48522q0.4069-0.18 0.8765-0.18t0.8765 0.18q0.407 0.18 0.7122 0.48522t0.4852 0.71217q0.18 0.40696 0.18 0.87653z"/>
  <path d="m19.69 18q0.5792 0 1.0879 0.21913t0.8921 0.60261q0.3835 0.38348 0.6026 0.9 0.2192 0.51652 0.2192 1.0956t-0.2192 1.0956q-0.2191 0.51653-0.6026 0.9-0.3834 0.38348-0.8921 0.60261t-1.0879 0.21913h-1.1269q-0.5635 0-1.0722-0.2113-0.5087-0.21131-0.8843-0.57913-0.3757-0.36783-0.6105-0.85305-0.2348-0.48521-0.2504-1.0487-0.031 0.56348-0.2583 1.0487-0.2269 0.48522-0.6026 0.85305-0.3756 0.36782-0.8765 0.57913-0.5009 0.2113-1.0644 0.2113h-1.1269q-0.5791 0-1.0957-0.21913-0.5165-0.21913-0.9-0.60261-0.3834-0.38347-0.6026-0.9-0.2191-0.51652-0.2191-1.0956t0.2191-1.0956q0.2192-0.51652 0.6026-0.9 0.3835-0.38348 0.9-0.60261 0.5166-0.21913 1.0957-0.21913h1.6748q0.016 0 0.3443 0.0783 0.3287 0.0783 0.7357 0.18 0.4069 0.10174 0.7591 0.19565 0.3522 0.0939 0.4148 0.10957 0.063-0.0157 0.4148-0.10957 0.3521-0.0939 0.7591-0.19565 0.407-0.10174 0.7357-0.18 0.3286-0.0783 0.3443-0.0783z" fill="#fff"/>
  <path d="m18 18-1.7217 2.0348q-0.094 0.10957-0.2505 0.16435-0.1565 0.0548-0.2817 0.0548t-0.2818-0.0548q-0.1565-0.0548-0.2504-0.16435l-1.7217-2.0348z" fill="#e84757"/>
  <path d="m29.254 11.254q0.9235 0 1.7452 0.35218 0.8218 0.35217 1.4322 0.96261 0.6104 0.61043 0.9626 1.4322t0.3522 1.7452v6.7617q-0.4696 0-0.8765-0.18-0.407-0.18-0.7122-0.48522t-0.4852-0.71218q-0.18-0.40695-0.18-0.87652v-4.5078q0-0.59479-0.2974-1.1113t-0.8139-0.82956v10.941q-0.4696 0-0.8766-0.17218-0.4069-0.17217-0.7121-0.47739t-0.4852-0.71217q-0.18-0.40696-0.18-0.87652v-7.3252q0-0.34435-0.1331-0.65739-0.133-0.31305-0.3678-0.53218t-0.54-0.35217-0.6496-0.13304h-23.979v-0.0783q0-0.23479 0.1252-0.70435 0.1252-0.46957 0.2974-0.98609t0.3443-0.97043q0.1722-0.45392 0.2661-0.64174h24.527q0.1252 0.28174 0.2191 0.56347 0.094 0.28174 0.2035 0.56348z" fill="#e81224"/>
</svg>
