<svg xmlns="http://www.w3.org/2000/svg" viewBox="0 0 36 36">
  <path d="m3.3809 36q-0.7044 0-1.3148-0.26609-0.6104-0.26608-1.0722-0.72782-0.4617-0.46174-0.7278-1.0722-0.2661-0.61043-0.2661-1.3148v-13.492q0-0.62609 0.2113-1.1817t0.5948-1.0017 0.9-0.75131q0.5165-0.30521 1.1269-0.39913l-0.047-0.0783q-0.2348-0.40695-0.3835-0.75913-0.1487-0.35217-0.1487-0.88435 0-0.50087 0.1644-0.95478 0.1643-0.45391 0.4617-0.82956 0.2974-0.37566 0.7122-0.63392t0.9-0.35217v-7.92q0-0.70435 0.2661-1.3148 0.266-0.61044 0.7278-1.0722 0.4617-0.46174 1.0722-0.72782 0.6105-0.26605 1.3148-0.26605 0.407 0 0.8687 0.11739 0.4618 0.11739 0.8061 0.33652l4.6018 2.927h3.193l4.5548-2.88q0.7826-0.50087 1.7217-0.50087 0.7044 0 1.3148 0.26609 0.6104 0.26608 1.0722 0.72782 0.4617 0.46174 0.7278 1.0722 0.2661 0.61043 0.2661 1.3148h9v2.2383q0 0.61044-0.1565 1.1817t-0.4461 1.0722-0.7122 0.92348-0.9391 0.72v0.61044q0 0.95478-0.36 1.7765t-0.9783 1.4244q-0.6182 0.6026-1.4478 0.94695t-1.7687 0.34435q-0.078 0.36-0.2035 0.61044-0.1252 0.25043-0.313 0.56347 0.6104 0.0939 1.1269 0.39913 0.5166 0.30522 0.9 0.75131 0.3835 0.44609 0.5948 1.0096 0.2113 0.56348 0.2113 1.1739v13.492q0 0.70435-0.2661 1.3148-0.266 0.61044-0.7278 1.0722-0.4617 0.46174-1.0722 0.72782-0.6104 0.26609-1.3147 0.26609z"/>
  <path d="m18 5.6191 5.1026-3.2244q0.094-0.0626 0.2426-0.10174 0.1487-0.0391 0.2739-0.0391 0.4696 0 0.7983 0.3287 0.3287 0.32869 0.3287 0.79826v6.1826q0 0.3913-0.063 0.65739t-0.1252 0.65739l-0.3757 2.6296h2.2539q0.2348 0 0.3992 0.16434 0.1643 0.16435 0.1643 0.39913 0 0.0783-0.1487 0.36-0.1487 0.28174-0.3756 0.68087-0.227 0.39913-0.5009 0.86087t-0.5244 0.8687q-0.2504 0.40696-0.4461 0.72783-0.1956 0.32086-0.2582 0.43043h-18q-0.078-0.10957-0.2661-0.43043-0.1878-0.32087-0.4383-0.72783-0.2504-0.40696-0.5243-0.8687t-0.5009-0.86087q-0.2269-0.39913-0.3756-0.68087-0.1487-0.28173-0.1487-0.36 0-0.21913 0.1721-0.3913 0.1722-0.17217 0.3914-0.17217h2.2539q-0.016-0.0783-0.016-0.18 0-0.10174 0-0.21131 0-0.3913 0.063-0.88435 0.063-0.49304 0.1409-0.99391 0.078-0.50087 0.1722-0.94696 0.094-0.44608 0.1721-0.74347l-1.0956-1.6748v-4.4922q0-0.46957 0.3287-0.79826 0.3287-0.3287 0.7982-0.3287 0.1253 0 0.274 0.0313t0.2582 0.10956l5.087 3.2244z" fill="#757575"/>
  <path d="m11.817 15.746h1.6748q0.016 0 0.3443 0.0783 0.3287 0.0783 0.7357 0.18 0.4069 0.10174 0.7591 0.19565 0.3522 0.0939 0.4148 0.10957 0.063-0.0157 0.4148-0.10957 0.3521-0.0939 0.7591-0.19565 0.407-0.10174 0.7357-0.18 0.3286-0.0783 0.3443-0.0783h1.6904q0.5792 0 1.0879 0.21913t0.8921 0.60261q0.3835 0.38347 0.6026 0.9 0.2192 0.51652 0.2192 1.0956t-0.2192 1.0956q-0.2191 0.51652-0.6026 0.9-0.3834 0.38348-0.8921 0.60261t-1.0879 0.21913h-1.1269q-0.5635 0-1.0722-0.2113-0.5087-0.21131-0.8843-0.57914-0.3757-0.36782-0.6105-0.85304t-0.2504-1.0487q-0.031 0.56347-0.2583 1.0487-0.2269 0.48522-0.6026 0.85304-0.3756 0.36783-0.8765 0.57914-0.5009 0.2113-1.0644 0.2113h-1.1269q-0.5791 0-1.0957-0.21913-0.5165-0.21913-0.9-0.60261-0.3834-0.38348-0.6026-0.9-0.2191-0.51652-0.2191-1.0956t0.2191-1.0956q0.2192-0.51653 0.6026-0.9 0.3835-0.38348 0.9-0.60261 0.5166-0.21913 1.0957-0.21913z" fill="#fff"/>
  <path d="m18 15.746-1.7217 2.0348q-0.094 0.10956-0.2505 0.16435-0.1565 0.0548-0.2817 0.0548t-0.2818-0.0548q-0.1565-0.0548-0.2504-0.16435l-1.7217-2.0348z" fill="#e84757"/>
  <path d="m23.619 10.127q0.4696 0 0.7983 0.32869 0.3287 0.3287 0.3287 0.79826v1.127q0 0.70435-0.2661 1.3148-0.2661 0.61044-0.72 1.0644t-1.0643 0.72q-0.6105 0.26609-1.3148 0.26609h-2.2539q-0.4696 0-0.8766-0.17218-0.4069-0.17217-0.7121-0.47739-0.3053-0.30522-0.4853-0.71217-0.18-0.40696-0.18-0.87652 0-0.46957-0.3287-0.79826-0.3286-0.3287-0.7982-0.3287-0.4539 0-0.7904 0.33652-0.3366 0.33652-0.3366 0.79044 0 0.46956-0.1721 0.87652-0.1722 0.40695-0.4774 0.71217-0.3053 0.30522-0.7122 0.47739-0.407 0.17218-0.8765 0.17218h-2.2539q-0.7044 0-1.3148-0.26609-0.6105-0.26609-1.0722-0.72t-0.7278-1.0644q-0.2661-0.61043-0.2661-1.3148v-1.127q0-0.46956 0.3287-0.79826 0.3287-0.32869 0.7982-0.32869h5.6192q0.4695 0 0.7982 0.32869 0.3287 0.3287 0.3287 0.79826h2.2539q0-0.46956 0.3287-0.79826 0.3287-0.32869 0.7983-0.32869z" fill="#2b2b2b"/>
  <path d="m7.873 11.254 2.8174-0.56348 2.8018 0.56348v2.2539q0 0.45391-0.3287 0.7826-0.3287 0.3287-0.7826 0.3287h-2.2539q-0.4696 0-0.8766-0.17217-0.4069-0.17218-0.7121-0.47739-0.3053-0.30522-0.4853-0.71218t-0.18-0.87652zm15.746 1.127q0 0.46956-0.1721 0.87652-0.1722 0.40696-0.4774 0.71218-0.3053 0.30521-0.7122 0.47739-0.407 0.17217-0.8765 0.17217h-2.2539q-0.454 0-0.7905-0.3287-0.3365-0.32869-0.3365-0.7826v-2.2539l2.8174-0.56348 2.8017 0.56348z" fill="#ffb900"/>
  <path d="m12.944 11.817 0.5479-0.56348 2.2539-0.56348 2.2539 0.56348 0.5635 0.56348-0.5635 0.56348h-4.5078zm10.111 0 1.1269-1.127 0.5635 0.56348v1.127h-1.127zm-16.31-0.56348 0.5635-0.56348 1.1269 1.127-0.5635 0.56348h-1.1269z" fill="#1f1f1f"/>
  <path d="m18 11.254h5.6191v1.127h-5.6191zm-10.127 0h5.6192v1.127h-5.6192z" fill="#d48c00"/>
  <path d="m6.7461 9v-5.6191l3.8348 2.4261q0.2034 0.12521 0.2034 0.37565 0 0.26609-0.2034 0.3913zm14.181-2.4261q-0.2192-0.14087-0.2192-0.3913 0-0.23478 0.2192-0.37565l3.8191-2.4261v5.6191z" fill="#a6a6a6"/>
  <path d="m24.746 7.873q0-0.46956 0.18-0.87652 0.18-0.40695 0.4852-0.71217t0.7122-0.48522q0.4069-0.18 0.8765-0.18h6.7461q0 0.46957-0.1722 0.87652-0.1722 0.40696-0.4774 0.71218-0.3052 0.30521-0.7122 0.48521-0.4069 0.18-0.8765 0.18h-3.3808q-0.4696 0-0.8766 0.18-0.4069 0.18-0.7121 0.48522-0.3053 0.30522-0.4853 0.71217-0.18 0.40696-0.18 0.87653h5.6348q0 0.46956-0.18 0.87652-0.18 0.40695-0.4852 0.71217t-0.7122 0.48522q-0.4069 0.18-0.8765 0.18h-4.5078v-1.127h-18v-3.3809z" fill="#e81224"/>
  <path d="m3.3809 33.746q-0.4696 0-0.7983-0.3287-0.3287-0.32869-0.3287-0.79826v-1.1113l9-1.5026q0.6574-0.10957 1.1896-0.24261t1.0408-0.24261q0.5087-0.10957 1.0487-0.18783 0.54-0.0783 1.2131-0.0783 0.673 0 1.213 0.0783t1.0487 0.18783q0.5087 0.10957 1.0487 0.24261t1.1974 0.24261l9 1.5026v1.1113q0 0.46957-0.3287 0.79826-0.3287 0.3287-0.7982 0.3287z" fill="#f2f2f2"/>
  <path d="m3.3809 18h24.746q0.4695 0 0.7982 0.3287 0.3287 0.32869 0.3287 0.79826v12.381h-27v-12.381q0-0.46957 0.3287-0.79826 0.3287-0.3287 0.7983-0.3287z" fill="#e5e5e5"/>
  <path d="m11.254 20.254h9v9h-9z" fill="#fff"/>
  <path d="m14.964 26.327 0.7826-1.5809 1.7217-0.78261 1.6592 0.78261v3.3809h-3.3809z" fill="#ffb900"/>
  <path d="m12.381 21.381h3.3652l0.9391 1.6748-0.9391 1.6904-1.6591 0.78261-1.7061-0.78261z" fill="#e81224"/>
  <path d="m19.127 24.746h-3.3809v-3.3652h3.3809z" fill="#8cbd18"/>
  <path d="m15.746 28.127h-3.3652v-3.3809h3.3652z" fill="#00bcf2"/>
</svg>
