<?xml version='1.0' encoding='ASCII'?>
<svg width="2300" height="2300" preserveAspectRatio="xMinYMin slice" viewBox="256 -431 2300 2300" version="1.1" xmlns="http://www.w3.org/2000/svg">
  <path d="M2125,1006 q89,0 167.5,-34 q78.5,-34 137,-92.5 q58.5,-58.5 92.5,-137 q34,-78.5 34,-167.5 v-287 h-156 l-60,-60 v-25 l72,-71 v-60 q0,-74 -28.5,-139.5 q-28.5,-65.5 -77,-114.5 q-48.5,-49 -114,-77 q-65.5,-28 -139.5,-28 h-647 q-23,0 -45,2.5 q-22,2.5 -44,8.5 l-74,-155 h-987 v1150 q0,74 28.5,141 q28.5,67 82.5,118 q-18,24 -37.5,47.5 q-19.5,23.5 -36,48.5 q-16.5,25 -27,52.5 q-10.5,27.5 -10.5,59.5 q0,43 19,80.5 q19,37.5 53,63.5 v359 q0,37 14,70 q14,33 38.5,57.5 q24.5,24.5 57.5,38.5 q33,14 70,14 q18,0 40.5,-4.5 q22.5,-4.5 38.5,-13.5 l211,-126 h137 l212,126 q16,10 38.5,14 q22.5,4 40.5,4 q41,0 77.5,-17.5 q36.5,-17.5 62.5,-49.5 q38,32 85.5,49.5 q47.5,17.5 98.5,17.5 q59,0 111.5,-23 q52.5,-23 91.5,-62 q39,-39 61.5,-91.5 q22.5,-52.5 22.5,-111.5 v-490 l-84,-85 h372 Z" fill="#000000" transform="matrix(1,0,0,-1,0,1438)"/>
  <path d="M1334,1078 q24,27 54.5,57.5 q30.5,30.5 62.5,61 q32,30.5 65.5,58 q33.5,27.5 63.5,47.5 l113,-80 v-72 l-287,-287 l-144,-647 h-862 v503 q0,42 13.5,77 q13.5,35 37.5,62 q24,27 57.5,45.5 q33.5,18.5 72.5,27.5 l681,147 h72 Z" fill="#757575" transform="matrix(1,0,0,-1,0,1438)"/>
  <path d="M1550,1725 q30,0 56,-11.5 q26,-11.5 45.5,-31 q19.5,-19.5 30.5,-45.5 q11,-26 11,-56 v-359 h-215 v236 q-33,20 -52.5,52.5 q-19.5,32.5 -19.5,70.5 q0,30 11,56 q11,26 30.5,45.5 q19.5,19.5 46,31 q26.5,11.5 56.5,11.5 Z" fill="#CCCCCC" transform="matrix(1,0,0,-1,0,1438)"/>
  <path d="M400,431 v288 q0,42 13.5,77 q13.5,35 37.5,62 q24,27 57.5,45.5 q33.5,18.5 72.5,27.5 l681,147 h72 v-539 q0,-1 -3.5,-16.5 q-3.5,-15.5 -8,-35 q-4.5,-19.5 -8,-36.5 q-3.5,-17 -4.5,-20 h-910 Z" fill="#FFB900" transform="matrix(1,0,0,-1,0,1438)"/>
  <path d="M1118,899 l-251,-252 l-252,252 h503 Z" fill="#A6A6A6" transform="matrix(1,0,0,-1,0,1438)"/>
  <path d="M2125,288 q29,0 50.5,-21.5 q21.5,-21.5 21.5,-50.5 h-288 q-30,0 -56,-11.5 q-26,-11.5 -45.5,-31 q-19.5,-19.5 -31,-45.5 q-11.5,-26 -11.5,-56 h-143 v216 h503 Z" fill="#F03A17" transform="matrix(1,0,0,-1,0,1438)"/>
  <path d="M1909,432 l65,80 l79,-80 l-144,-144 v144 Z M2053,432 l66,80 l78,-80 l-144,-144 v144 Z M2197,432 l67,80 l76,-80 l-143,-144 v144 Z M1981,216 l144,-144 l-88,-60 l-56,60 v144 Z M2125,216 l143,-144 l-83,-60 l-60,60 v144 Z" fill="#FFFFFF" transform="matrix(1,0,0,-1,0,1438)"/>
  <path d="M1873,431 q-37,0 -70,-14 q-33,-14 -57.5,-38.5 q-24.5,-24.5 -38.5,-57 q-14,-32.5 -14,-69.5 q0,-37 14,-70 q14,-33 38.5,-57.5 q24.5,-24.5 57.5,-38.5 q33,-14 70,-14 h395 q0,-45 -17,-84 q-17,-39 -46,-68.5 q-29,-29.5 -68,-46.5 q-39,-17 -84,-17 h-647 q-44,0 -84,17.5 q-40,17.5 -70,48.5 l-100,-209 h-752 v503 l85,86 l171,-15 l-20,168 l117,118 l176,-33 l-20,181 q46,22 76,36 q30,14 58,21.5 q28,7.5 61.5,10 q33.5,2.5 85.5,2.5 q0,30 11.5,56 q11.5,26 31,45.5 q19.5,19.5 45.5,31 q26,11.5 56,11.5 h216 q38,0 71,-19.5 q33,-19.5 53,-52.5 h451 q59,0 111.5,-23 q52.5,-23 91.5,-62 q39,-39 61.5,-91.5 q22.5,-52.5 22.5,-111.5 v-144 h-539 Z" fill="#8CBD18" transform="matrix(1,0,0,-1,0,1438)"/>
  <path d="M1693,719 q0,-45 -17,-84 q-17,-39 -46,-68.5 q-29,-29.5 -68,-46.5 q-39,-17 -84,-17 q-45,0 -84,17 q-39,17 -68.5,46.5 q-29.5,29.5 -46.5,68.5 q-17,39 -17,84 h144 l72,-42 l72,42 h143 Z" fill="#73AA24" transform="matrix(1,0,0,-1,0,1438)"/>
  <path d="M1033,597 q15,-15 23,-35 q8,-20 8,-41 q0,-22 -8.5,-41.5 q-8.5,-19.5 -23,-34.5 q-14.5,-15 -34,-23.5 q-19.5,-8.5 -41.5,-8.5 q-44,0 -76,32 l-128,128 q38,38 74.5,78 q36.5,40 81.5,71 l124,-125 Z M763,328 q15,-15 23,-35 q8,-20 8,-41 q0,-23 -8.5,-42.5 q-8.5,-19.5 -22.5,-34.5 q-14,-15 -34,-23.5 q-20,-8.5 -42,-8.5 q-44,0 -76,32 l-126,127 l151,153 l127,-127 Z" fill="#BAD80A" transform="matrix(1,0,0,-1,0,1438)"/>
  <path d="M472,1689 q0,15 10.5,25.5 q10.5,10.5 25.5,10.5 q5,0 23.5,-9.5 q18.5,-9.5 43.5,-23.5 q25,-14 54,-31.5 q29,-17.5 55.5,-33.5 q26.5,-16 46.5,-28.5 q20,-12.5 28,-16.5 h216 q8,4 28,16.5 q20,12.5 46.5,28.5 q26.5,16 55.5,33.5 q29,17.5 54,31.5 q25,14 43.5,23.5 q18.5,9.5 23.5,9.5 q15,0 25.5,-10.5 q10.5,-10.5 10.5,-25.5 v-467 q6,0 14.5,0.5 q8.5,0.5 17.5,0.5 q15,0 27.5,-4 q12.5,-4 12.5,-20 q0,-5 -10,-24.5 q-10,-19.5 -24.5,-45 q-14.5,-25.5 -30,-52 q-15.5,-26.5 -25.5,-44.5 l-12,-19 q-28,-50 -67,-89 q-39,-39 -86.5,-66.5 q-47.5,-27.5 -101,-42 q-53.5,-14.5 -110.5,-14.5 q-56,0 -109.5,14.5 q-53.5,14.5 -100.5,41.5 q-47,27 -86.5,66 q-39.5,39 -67.5,88 q-3,6 -12,21 q-9,15 -20.5,34.5 q-11.5,19.5 -24,41 q-12.5,21.5 -23,40.5 q-10.5,19 -17,32.5 q-6.5,13.5 -6.5,17.5 q0,16 12.5,20 q12.5,4 27.5,4 q9,0 17.5,-0.5 q8.5,-0.5 14.5,-0.5 v467 Z" fill="#757575" transform="matrix(1,0,0,-1,0,1438)"/>
  <path d="M723,1503 v-65 h-251 v231 l237,-141 q14,-8 14,-25 Z M1011,1503 q0,17 14,25 l237,141 v-231 h-251 v65 Z" fill="#A6A6A6" transform="matrix(1,0,0,-1,0,1438)"/>
  <path d="M651,1366 q15,0 25.5,-10.5 q10.5,-10.5 10.5,-25.5 v-72 q0,-15 -10.5,-25.5 q-10.5,-10.5 -25.5,-10.5 q-15,0 -25.5,10.5 q-10.5,10.5 -10.5,25.5 v72 q0,15 10.5,25.5 q10.5,10.5 25.5,10.5 Z M1083,1366 q14,0 24.5,-11 q10.5,-11 10.5,-25 v-72 q0,-14 -10.5,-25 q-10.5,-11 -24.5,-11 q-15,0 -25.5,10.5 q-10.5,10.5 -10.5,25.5 v72 q0,15 10.5,25.5 q10.5,10.5 25.5,10.5 Z M939,971 q0,-30 -21,-51 q-21,-21 -51,-21 q-30,0 -51,21 q-21,21 -21,51 q0,29 21.5,50 q21.5,21 50.5,21 q29,0 50.5,-21 q21.5,-21 21.5,-50 Z M1478,647 q-30,0 -51,21 q-21,21 -21,51 h144 q0,-30 -21,-51 q-21,-21 -51,-21 Z M2160,719 q15,0 26,-11 l72,-71 q10,-10 10,-26 q0,-14 -10.5,-25 q-10.5,-11 -25.5,-11 q-14,0 -25,11 l-72,72 q-11,11 -11,25 q0,14 11,25 q11,11 25,11 Z" fill="#000000" transform="matrix(1,0,0,-1,0,1438)"/>
  <path d="M1011,1150 q22,0 42,-8.5 q20,-8.5 34,-23.5 q14,-15 22.5,-34.5 q8.5,-19.5 8.5,-41.5 q0,-22 -8.5,-41.5 q-8.5,-19.5 -23,-34 q-14.5,-14.5 -34,-23 q-19.5,-8.5 -41.5,-8.5 h-36 q-44,0 -75,29 q-31,29 -33,73 q-1,-22 -10,-40.5 q-9,-18.5 -23.5,-32 q-14.5,-13.5 -34,-21.5 q-19.5,-8 -40.5,-8 h-36 q-22,0 -41.5,8.5 q-19.5,8.5 -34.5,23 q-15,14.5 -23.5,34 q-8.5,19.5 -8.5,41.5 q0,22 8.5,41.5 q8.5,19.5 23.5,34.5 q15,15 34.5,23.5 q19.5,8.5 41.5,8.5 h36 q22,0 42,-8.5 q20,-8.5 34.5,-23 q14.5,-14.5 23,-34.5 q8.5,-20 8.5,-42 q0,22 8.5,42 q8.5,20 23,34.5 q14.5,14.5 34,23 q19.5,8.5 42.5,8.5 h36 Z" fill="#FFFFFF" transform="matrix(1,0,0,-1,0,1438)"/>
  <path d="M910,1064 q-16,-22 -43,-22 q-27,0 -43,22 l-65,86 h216 l-65,-86 Z" fill="#E84757" transform="matrix(1,0,0,-1,0,1438)"/>
  <path d="M1622,1581 q0,-23 -9,-37.5 q-9,-14.5 -24,-22.5 q-15,-8 -35,-10.5 q-20,-2.5 -42,-2.5 q-26,0 -52,0.5 q-26,0.5 -52,0.5 q-23,0 -43,-2.5 q-20,-2.5 -35,-10 q-15,-7.5 -23.5,-21.5 q-8.5,-14 -8.5,-37 h252 q0,-29 -21.5,-50.5 q-21.5,-21.5 -50.5,-21.5 h-1006 v144 h790 q0,29 21.5,50 q21.5,21 50.5,21 h288 Z" fill="#E81224" transform="matrix(1,0,0,-1,0,1438)"/>
</svg>
