<svg xmlns="http://www.w3.org/2000/svg" viewBox="0 0 36 36">
  <path d="m32.056 0q0.8139 0 1.5339 0.31304 0.72 0.31305 1.2521 0.84522 0.5322 0.53217 0.8453 1.2522 0.313 0.72 0.313 1.5339 0 0.7513-0.2739 1.4322t-0.7513 1.2052-1.127 0.86087q-0.6495 0.33652-1.4008 0.41478l-4.32 4.32q0 0.45391 0.016 0.88435 0.016 0.43043 0.016 0.88435 0 1.033-0.1722 1.9174t-0.7357 1.7765q0.9392 0.62609 1.4713 1.62 0.5322 0.99391 0.5322 2.1209 0 0.64174-0.1409 1.1504-0.1408 0.5087-0.3991 0.94696-0.2582 0.43826-0.6026 0.84522-0.3443 0.40695-0.767 0.84522l-2.5982 2.7235q0 0.97044-0.3287 1.8313t-0.9235 1.5026-1.4165 1.0174-1.8235 0.37565h-2.2546v-6.7461h-0.1878l-6.6835 6.6835q-0.1878 0.75131-0.6026 1.3852t-1.0018 1.0878q-0.5869 0.45391-1.2991 0.71217t-1.4791 0.25826h-2.2539v-5.8226q-0.5792 0.20348-1.1113 0.20348-0.7044 0-1.3148-0.26609-0.6104-0.26608-1.0722-0.72782-0.4617-0.46174-0.7278-1.0722-0.2661-0.61043-0.2661-1.3148 0-1.2209 0.3835-2.387 0.3835-1.1661 1.0878-2.1522-0.7043-0.6887-1.0878-1.5183-0.3835-0.82957-0.3835-1.8156 0-0.70435 0.1565-1.26 0.1565-0.55566 0.4618-1.0174 0.3052-0.46174 0.7356-0.86087t0.9783-0.80609l0.1252-0.0783 6.3704-2.7235h-3.2087v-2.2539q0-0.53218 0.1644-1.033 0.1643-0.50087 0.4617-0.90782 0.2974-0.40696 0.7122-0.72783t0.9156-0.50869v-2.4417h7.3566q0.3913-0.89218 1.0017-1.6044 0.6104-0.71218 1.3852-1.213 0.7748-0.50086 1.6748-0.77478 0.9-0.27391 1.8704-0.27391 0.9235 0 1.6592 0.19565 0.7356 0.19565 1.3774 0.54783 0.6417 0.35217 1.2287 0.86087 0.5869 0.50869 1.213 1.1348h0.4383l2.2069-2.2383q0.5478-0.54783 1.2757-0.84522 0.7278-0.29735 1.4948-0.29735z"/>
  <path d="m19.127 11.254-2.3635 7.1217-7.0592 7.0748q-0.2034 0.20348-0.4773 0.31305-0.274 0.10956-0.5557 0.10956-0.6104 0-1.033-0.42261l-4.727-4.727q-0.313-0.31305-0.4852-0.72783t-0.1722-0.86869q0-0.61044 0.3287-1.1817 0.3287-0.57131 0.9078-0.82174l11.786-5.0713q0.9078-0.3913 1.8861-0.59478t1.9644-0.20348z" fill="#00bcf2"/>
  <path d="m22.774 19.127h1.9722q0.4696 0 0.8765 0.18 0.407 0.18 0.7122 0.48521 0.3052 0.30522 0.4852 0.71218 0.18 0.40695 0.18 0.87652 0 0.34435-0.094 0.61826t-0.2426 0.52435q-0.1487 0.25043-0.3522 0.46956t-0.4226 0.43826l-0.1722 0.18783-2.3478 0.89217-0.8765-0.89217h-5.6192l-5.6191 5.6348-1.6591-0.15652v-1.5339l1.6591-1.6904v-2.2539h-3.3809q-0.8921 0-1.6513 0.43826-0.7591 0.43826-1.213 1.1896l-1.3461 0.10956-0.2661-1.7217q0.7983-1.0644 1.9722-1.6591t2.5043-0.59478h5.04l0.5322-4.5548 7.9357-7.8261-0.6887-1.8 0.6887-1.5809h4.4921v2.1756l2.7548-2.7861 1.6592 0.15652 0.094 1.5809-4.5079 4.5078-1.6904 6.4487z" fill="#757575"/>
  <path d="m27 5.6191v1.127h-1.1583v-1.127z" fill="#f7894a"/>
  <path d="m21.381 7.9044q0 0.42261 0.2191 0.69652t0.493 0.54q0.274 0.26609 0.4931 0.59478 0.2191 0.3287 0.2191 0.86087 0 0.36-0.1409 0.6887-0.1408 0.32869-0.3834 0.5713t-0.5713 0.38348-0.6887 0.14087-0.6809-0.1487q-0.3209-0.14869-0.587-0.38347-0.4539-0.40696-0.8843-0.8374-0.4304-0.43043-0.8374-0.88434l-0.6887-0.29739 0.1096-0.53218-0.4539-1.1426q-0.047 0-0.094-0.0156-0.047-0.0157-0.047-0.0783 0-0.10957 0.078-0.18783-0.063-0.31304-0.063-0.70434 0-0.89218 0.3444-1.667 0.3443-0.77478 0.9313-1.3617t1.3774-0.92348 1.6669-0.33652q0.5322 0 0.9705 0.10957l0.2035 0.51652 0.9391-0.0626q0.313 0.18782 0.5791 0.40695 0.2661 0.21914 0.5322 0.48522l-2.6922 2.7078q-0.3443 0.34435-0.3443 0.86087zm4.4921-2.2852 1.127 1.127v0.56348q0 0.36-0.133 0.66521-0.1331 0.30522-0.36 0.53218-0.227 0.22695-0.54 0.36-0.3131 0.13304-0.6574 0.13304-0.3444 0-0.6496-0.13304-0.3052-0.13305-0.54-0.36783t-0.3678-0.54q-0.1331-0.30522-0.1331-0.64956 0-0.34435 0.1331-0.64957 0.133-0.30522 0.3678-0.54t0.54-0.36783q0.3052-0.13304 0.6496-0.13304z" fill="#fff"/>
  <path d="m20.254 25.873 2.2383-2.2539h3.2243l-3.2243 3.3809v1.127q0 0.46956-0.1722 0.87652-0.1722 0.40695-0.4774 0.71217t-0.7122 0.48522q-0.4069 0.18-0.8765 0.18zm-13.508 4.5078 2.8174-2.8174 1.6904 1.6904-2.2539 2.2539q0 0.46956-0.18 0.87652-0.18 0.40695-0.4852 0.71217t-0.7122 0.47739q-0.4069 0.17218-0.8765 0.17218zm25.31-28.127q0.3443 0 0.6573 0.13305 0.3131 0.13304 0.54 0.36 0.227 0.22695 0.36 0.54 0.1331 0.31304 0.1331 0.65739 0 0.36-0.1331 0.66522-0.133 0.30521-0.3678 0.52434t-0.54 0.35218q-0.3052 0.13304-0.6495 0.13304h-0.5635l-1.1113 1.127-1.7531-1.7374 2.2539-2.2852q0.2192-0.21913 0.54-0.34435 0.3209-0.12522 0.634-0.12522zm-20.817 17.437q0-0.32869 0.133-0.64173 0.133-0.31305 0.3678-0.54783l1.7061-1.6748 2.3791 2.3635-1.6904 1.6904q-0.2348 0.23478-0.5478 0.36783-0.3131 0.13304-0.6574 0.13304-0.3444 0-0.6496-0.13304-0.3052-0.13305-0.54-0.36783t-0.3678-0.54-0.133-0.64957zm12.944-4.5078h-2.2383l3.9287-3.9287v3.3652q0 0.53217-0.1252 0.95478t-0.3521 0.77479q-0.227 0.35217-0.54 0.68087-0.3131 0.32869-0.6731 0.67304zm-21.929 11.817q0-0.92348 0.2974-1.7765 0.2974-0.85305 0.8452-1.5887l1.6122 1.6122q-0.2348 0.40695-0.3757 0.84521-0.1408 0.43826-0.1408 0.90783 0 0.45391-0.3287 0.79043-0.3287 0.33653-0.7826 0.33653-0.4696 0-0.7983-0.3287-0.3287-0.32869-0.3287-0.79826z" fill="#ccc"/>
  <path d="m23.306 3.4435-5.8539 5.8539q0.1252 0.21913 0.2739 0.43044 0.1487 0.2113 0.3209 0.39913h-10.174q0-0.46957 0.3287-0.79826 0.3287-0.3287 0.7983-0.3287h4.9461q-0.5009-0.0313-0.9-0.34435-0.3991-0.31304-0.5713-0.78261-0.1722 0-0.3287 8e-3t-0.3287 8e-3q-0.2974 0-0.6026-0.0391t-0.5478-0.15653q-0.2427-0.11739-0.3913-0.34434-0.1487-0.22696-0.1487-0.60261h3.3652q0.1252 0.37565 0.36 0.60261 0.2348 0.22695 0.54 0.35217t0.6495 0.16435q0.3444 0.0391 0.7044 0.0391 0.313 0 0.6182-0.0157 0.3053-0.0157 0.5714-0.0157l0.063 0.28174 5.1652-5.1652q0.6104 0.14086 1.1426 0.45391z" fill="#e81224"/>
</svg>
