<?xml version='1.0' encoding='ASCII'?>
<svg width="2300" height="2300" preserveAspectRatio="xMinYMin slice" viewBox="256 -431 2300 2300" version="1.1" xmlns="http://www.w3.org/2000/svg">
  <path d="M472,-431 q-45,0 -84,17 q-39,17 -68.5,46.5 q-29.5,29.5 -46.5,68.5 q-17,39 -17,84 v862 q0,40 13.5,75.5 q13.5,35.5 38,64 q24.5,28.5 57.5,48 q33,19.5 72,25.5 l-3,5 q-15,26 -24.5,48.5 q-9.5,22.5 -9.5,56.5 q0,32 10.5,61 q10.5,29 29.5,53 q19,24 45.5,40.5 q26.5,16.5 57.5,22.5 v506 q0,45 17,84 q17,39 46.5,68.5 q29.5,29.5 68.5,46.5 q39,17 84,17 q26,0 55.5,-7.5 q29.5,-7.5 51.5,-21.5 l294,-187 h204 l291,184 q50,32 110,32 q45,0 84,-17 q39,-17 68.5,-46.5 q29.5,-29.5 46.5,-68.5 q17,-39 17,-84 h575 v-143 q0,-39 -10,-75.5 q-10,-36.5 -28.5,-68.5 q-18.5,-32 -45.5,-59 q-27,-27 -60,-46 v-39 q0,-61 -23,-113.5 q-23,-52.5 -62.5,-91 q-39.5,-38.5 -92.5,-60.5 q-53,-22 -113,-22 q-5,-23 -13,-39 q-8,-16 -20,-36 q39,-6 72,-25.5 q33,-19.5 57.5,-48 q24.5,-28.5 38,-64.5 q13.5,-36 13.5,-75 v-862 q0,-45 -17,-84 q-17,-39 -46.5,-68.5 q-29.5,-29.5 -68.5,-46.5 q-39,-17 -84,-17 h-1581 Z" fill="#000000" transform="matrix(1,0,0,-1,0,1438)"/>
  <path d="M1406,1510 l326,206 q6,4 15.5,6.5 q9.5,2.5 17.5,2.5 q30,0 51,-21 q21,-21 21,-51 v-395 q0,-25 -4,-42 q-4,-17 -8,-42 l-24,-168 h144 q15,0 25.5,-10.5 q10.5,-10.5 10.5,-25.5 q0,-5 -9.5,-23 q-9.5,-18 -24,-43.5 q-14.5,-25.5 -32,-55 q-17.5,-29.5 -33.5,-55.5 q-16,-26 -28.5,-46.5 q-12.5,-20.5 -16.5,-27.5 h-1150 q-5,7 -17,27.5 q-12,20.5 -28,46.5 q-16,26 -33.5,55.5 q-17.5,29.5 -32,55 q-14.5,25.5 -24,43.5 q-9.5,18 -9.5,23 q0,14 11,25 q11,11 25,11 h144 q-1,5 -1,11.5 q0,6.5 0,13.5 q0,25 4,56.5 q4,31.5 9,63.5 q5,32 11,60.5 q6,28.5 11,47.5 l-70,107 v287 q0,30 21,51 q21,21 51,21 q8,0 17.5,-2 q9.5,-2 16.5,-7 l325,-206 h288 Z" fill="#757575" transform="matrix(1,0,0,-1,0,1438)"/>
  <path d="M1011,863 h107 q1,0 22,-5 q21,-5 47,-11.5 q26,-6.5 48.5,-12.5 q22.5,-6 26.5,-7 q4,1 26.5,7 q22.5,6 48.5,12.5 q26,6.5 47,11.5 q21,5 22,5 h108 q37,0 69.5,-14 q32.5,-14 57,-38.5 q24.5,-24.5 38.5,-57.5 q14,-33 14,-70 q0,-37 -14,-70 q-14,-33 -38.5,-57.5 q-24.5,-24.5 -57,-38.5 q-32.5,-14 -69.5,-14 h-72 q-36,0 -68.5,13.5 q-32.5,13.5 -56.5,37 q-24,23.5 -39,54.5 q-15,31 -16,67 q-2,-36 -16.5,-67 q-14.5,-31 -38.5,-54.5 q-24,-23.5 -56,-37 q-32,-13.5 -68,-13.5 h-72 q-37,0 -70,14 q-33,14 -57.5,38.5 q-24.5,24.5 -38.5,57.5 q-14,33 -14,70 q0,37 14,70 q14,33 38.5,57.5 q24.5,24.5 57.5,38.5 q33,14 70,14 Z" fill="#FFFFFF" transform="matrix(1,0,0,-1,0,1438)"/>
  <path d="M1406,863 l-110,-130 q-6,-7 -16,-10.5 q-10,-3.5 -18,-3.5 q-8,0 -18,3.5 q-10,3.5 -16,10.5 l-110,130 h288 Z" fill="#E84757" transform="matrix(1,0,0,-1,0,1438)"/>
  <path d="M1765,1222 q30,0 51,-21 q21,-21 21,-51 v-72 q0,-45 -17,-84 q-17,-39 -46,-68 q-29,-29 -68,-46 q-39,-17 -84,-17 h-144 q-30,0 -56,11 q-26,11 -45.5,30.5 q-19.5,19.5 -31,45.5 q-11.5,26 -11.5,56 q0,30 -21,51 q-21,21 -51,21 q-29,0 -50.5,-21.5 q-21.5,-21.5 -21.5,-50.5 q0,-30 -11,-56 q-11,-26 -30.5,-45.5 q-19.5,-19.5 -45.5,-30.5 q-26,-11 -56,-11 h-144 q-45,0 -84,17 q-39,17 -68.5,46 q-29.5,29 -46.5,68 q-17,39 -17,84 v72 q0,30 21,51 q21,21 51,21 h359 q30,0 51,-21 q21,-21 21,-51 h144 q0,30 21,51 q21,21 51,21 h359 Z" fill="#2B2B2B" transform="matrix(1,0,0,-1,0,1438)"/>
  <path d="M759,1150 l180,36 l179,-36 v-144 q0,-29 -21,-50 q-21,-21 -50,-21 h-144 q-30,0 -56,11 q-26,11 -45.5,30.5 q-19.5,19.5 -31,45.5 q-11.5,26 -11.5,56 v72 Z M1765,1078 q0,-30 -11,-56 q-11,-26 -30.5,-45.5 q-19.5,-19.5 -45.5,-30.5 q-26,-11 -56,-11 h-144 q-29,0 -50.5,21 q-21.5,21 -21.5,50 v144 l180,36 l179,-36 v-72 Z" fill="#FFB900" transform="matrix(1,0,0,-1,0,1438)"/>
  <path d="M1083,1114 l35,36 l144,36 l144,-36 l36,-36 l-36,-36 h-288 l-35,36 Z M1729,1114 l72,72 l36,-36 v-72 h-72 l-36,36 Z M687,1150 l36,36 l72,-72 l-36,-36 h-72 v72 Z" fill="#1F1F1F" transform="matrix(1,0,0,-1,0,1438)"/>
  <path d="M1406,1150 h359 v-72 h-359 v72 Z M759,1150 h359 v-72 h-359 v72 Z" fill="#D48C00" transform="matrix(1,0,0,-1,0,1438)"/>
  <path d="M687,1294 v359 l245,-155 q13,-8 13,-24 q0,-17 -13,-25 l-245,-155 Z M1593,1449 q-14,9 -14,25 q0,15 14,24 l244,155 v-359 l-244,155 Z" fill="#A6A6A6" transform="matrix(1,0,0,-1,0,1438)"/>
  <path d="M1837,1366 q0,30 11.5,56 q11.5,26 31,45.5 q19.5,19.5 45.5,31 q26,11.5 56,11.5 h431 q0,-30 -11,-56 q-11,-26 -30.5,-45.5 q-19.5,-19.5 -45.5,-31 q-26,-11.5 -56,-11.5 h-216 q-30,0 -56,-11.5 q-26,-11.5 -45.5,-31 q-19.5,-19.5 -31,-45.5 q-11.5,-26 -11.5,-56 h360 q0,-30 -11.5,-56 q-11.5,-26 -31,-45.5 q-19.5,-19.5 -45.5,-31 q-26,-11.5 -56,-11.5 h-288 v72 h-1150 v216 h1150 Z" fill="#E81224" transform="matrix(1,0,0,-1,0,1438)"/>
  <path d="M472,-287 q-30,0 -51,21 q-21,21 -21,51 v71 l575,96 q42,7 76,15.5 q34,8.5 66.5,15.5 q32.5,7 67,12 q34.5,5 77.5,5 q43,0 77.5,-5 q34.5,-5 67,-12 q32.5,-7 67,-15.5 q34.5,-8.5 76.5,-15.5 l575,-96 v-71 q0,-30 -21,-51 q-21,-21 -51,-21 h-1581 Z" fill="#F2F2F2" transform="matrix(1,0,0,-1,0,1438)"/>
  <path d="M472,719 h1581 q30,0 51,-21 q21,-21 21,-51 v-791 h-1725 v791 q0,30 21,51 q21,21 51,21 Z" fill="#E5E5E5" transform="matrix(1,0,0,-1,0,1438)"/>
  <path d="M975,575 h575 v-575 h-575 v575 Z" fill="#FFFFFF" transform="matrix(1,0,0,-1,0,1438)"/>
  <path d="M1212,187 l50,101 l110,50 l106,-50 v-216 h-216 l-50,115 Z" fill="#FFB900" transform="matrix(1,0,0,-1,0,1438)"/>
  <path d="M1047,503 h215 l60,-107 l-60,-108 l-106,-50 l-109,50 v215 Z" fill="#E81224" transform="matrix(1,0,0,-1,0,1438)"/>
  <path d="M1478,288 h-216 v215 h216 v-215 Z" fill="#8CBD18" transform="matrix(1,0,0,-1,0,1438)"/>
  <path d="M1262,72 h-215 v216 h215 v-216 Z" fill="#00BCF2" transform="matrix(1,0,0,-1,0,1438)"/>
</svg>
