<?xml version='1.0' encoding='ASCII'?>
<svg width="2300" height="2300" preserveAspectRatio="xMinYMin slice" viewBox="256 -431 2300 2300" version="1.1" xmlns="http://www.w3.org/2000/svg">
  <path d="M2304,1869 q52,0 98,-20 q46,-20 80,-54 q34,-34 54,-80 q20,-46 20,-98 q0,-48 -17.5,-91.5 q-17.5,-43.5 -48,-77 q-30.5,-33.5 -72,-55 q-41.5,-21.5 -89.5,-26.5 l-276,-276 q0,-29 1,-56.5 q1,-27.5 1,-56.5 q0,-66 -11,-122.5 q-11,-56.5 -47,-113.5 q60,-40 94,-103.5 q34,-63.5 34,-135.5 q0,-41 -9,-73.5 q-9,-32.5 -25.5,-60.5 q-16.5,-28 -38.5,-54 q-22,-26 -49,-54 l-166,-174 q0,-62 -21,-117 q-21,-55 -59,-96 q-38,-41 -90.5,-65 q-52.5,-24 -116.5,-24 h-144 v431 h-12 l-427,-427 q-12,-48 -38.5,-88.5 q-26.5,-40.5 -64,-69.5 q-37.5,-29 -83,-45.5 q-45.5,-16.5 -94.5,-16.5 h-144 v372 q-37,-13 -71,-13 q-45,0 -84,17 q-39,17 -68.5,46.5 q-29.5,29.5 -46.5,68.5 q-17,39 -17,84 q0,78 24.5,152.5 q24.5,74.5 69.5,137.5 q-45,44 -69.5,97 q-24.5,53 -24.5,116 q0,45 10,80.5 q10,35.5 29.5,65 q19.5,29.5 47,55 q27.5,25.5 62.5,51.5 l8,5 l407,174 h-205 v144 q0,34 10.5,66 q10.5,32 29.5,58 q19,26 45.5,46.5 q26.5,20.5 58.5,32.5 v156 h470 q25,57 64,102.5 q39,45.5 88.5,77.5 q49.5,32 107,49.5 q57.5,17.5 119.5,17.5 q59,0 106,-12.5 q47,-12.5 88,-35 q41,-22.5 78.5,-55 q37.5,-32.5 77.5,-72.5 h28 l141,143 q35,35 81.5,54 q46.5,19 95.5,19 Z" fill="#000000" transform="matrix(1,0,0,-1,0,1438)"/>
  <path d="M1478,1150 l-151,-455 l-451,-452 q-13,-13 -30.5,-20 q-17.5,-7 -35.5,-7 q-39,0 -66,27 l-302,302 q-20,20 -31,46.5 q-11,26.5 -11,55.5 q0,39 21,75.5 q21,36.5 58,52.5 l753,324 q58,25 120.5,38 q62.5,13 125.5,13 Z" fill="#00BCF2" transform="matrix(1,0,0,-1,0,1438)"/>
  <path d="M1711,647 h126 q30,0 56,-11.5 q26,-11.5 45.5,-31 q19.5,-19.5 31,-45.5 q11.5,-26 11.5,-56 q0,-22 -6,-39.5 q-6,-17.5 -15.5,-33.5 q-9.5,-16 -22.5,-30 q-13,-14 -27,-28 l-11,-12 l-150,-57 l-56,57 h-359 l-359,-360 l-106,10 v98 l106,108 v144 h-216 q-57,0 -105.5,-28 q-48.5,-28 -77.5,-76 l-86,-7 l-17,110 q51,68 126,106 q75,38 160,38 h322 l34,291 l507,500 l-44,115 l44,101 h287 v-139 l176,178 l106,-10 l6,-101 l-288,-288 l-108,-412 l-90,-91 Z" fill="#757575" transform="matrix(1,0,0,-1,0,1438)"/>
  <path d="M1981,1510 v-72 h-74 v72 h74 Z" fill="#F7894A" transform="matrix(1,0,0,-1,0,1438)"/>
  <path d="M1622,1364 q0,-27 14,-44.5 q14,-17.5 31.5,-34.5 q17.5,-17 31.5,-38 q14,-21 14,-55 q0,-23 -9,-44 q-9,-21 -24.5,-36.5 q-15.5,-15.5 -36.5,-24.5 q-21,-9 -44,-9 q-23,0 -43.5,9.5 q-20.5,9.5 -37.5,24.5 q-29,26 -56.5,53.5 q-27.5,27.5 -53.5,56.5 l-44,19 l7,34 l-29,73 q-3,0 -6,1 q-3,1 -3,5 q0,7 5,12 q-4,20 -4,45 q0,57 22,106.5 q22,49.5 59.5,87 q37.5,37.5 88,59 q50.5,21.5 106.5,21.5 q34,0 62,-7 l13,-33 l60,4 q20,-12 37,-26 q17,-14 34,-31 l-172,-173 q-22,-22 -22,-55 Z M1909,1510 l72,-72 v-36 q0,-23 -8.5,-42.5 q-8.5,-19.5 -23,-34 q-14.5,-14.5 -34.5,-23 q-20,-8.5 -42,-8.5 q-22,0 -41.5,8.5 q-19.5,8.5 -34.5,23.5 q-15,15 -23.5,34.5 q-8.5,19.5 -8.5,41.5 q0,22 8.5,41.5 q8.5,19.5 23.5,34.5 q15,15 34.5,23.5 q19.5,8.5 41.5,8.5 h36 Z" fill="#FFFFFF" transform="matrix(1,0,0,-1,0,1438)"/>
  <path d="M1550,216 l143,144 h206 l-206,-216 v-72 q0,-30 -11,-56 q-11,-26 -30.5,-45.5 q-19.5,-19.5 -45.5,-31 q-26,-11.5 -56,-11.5 v288 Z M687,-72 l180,180 l108,-108 l-144,-144 q0,-30 -11.5,-56 q-11.5,-26 -31,-45.5 q-19.5,-19.5 -45.5,-30.5 q-26,-11 -56,-11 v215 Z M2304,1725 q22,0 42,-8.5 q20,-8.5 34.5,-23 q14.5,-14.5 23,-34.5 q8.5,-20 8.5,-42 q0,-23 -8.5,-42.5 q-8.5,-19.5 -23.5,-33.5 q-15,-14 -34.5,-22.5 q-19.5,-8.5 -41.5,-8.5 h-36 l-71,-72 l-112,111 l144,146 q14,14 34.5,22 q20.5,8 40.5,8 Z M974,611 q0,21 8.5,41 q8.5,20 23.5,35 l109,107 l152,-151 l-108,-108 q-15,-15 -35,-23.5 q-20,-8.5 -42,-8.5 q-22,0 -41.5,8.5 q-19.5,8.5 -34.5,23.5 q-15,15 -23.5,34.5 q-8.5,19.5 -8.5,41.5 Z M1801,899 h-143 l251,251 v-215 q0,-34 -8,-61 q-8,-27 -22.5,-49.5 q-14.5,-22.5 -34.5,-43.5 q-20,-21 -43,-43 v161 Z M400,144 q0,59 19,113.5 q19,54.5 54,101.5 l103,-103 q-15,-26 -24,-54 q-9,-28 -9,-58 q0,-29 -21,-50.5 q-21,-21.5 -50,-21.5 q-30,0 -51,21 q-21,21 -21,51 Z" fill="#CCCCCC" transform="matrix(1,0,0,-1,0,1438)"/>
  <path d="M1745,1649 l-374,-374 q8,-14 17.5,-27.5 q9.5,-13.5 20.5,-25.5 h-650 q0,30 21,51 q21,21 51,21 h316 q-32,2 -57.5,22 q-25.5,20 -36.5,50 q-11,0 -21,-0.5 q-10,-0.5 -21,-0.5 q-19,0 -38.5,2.5 q-19.5,2.5 -35,10 q-15.5,7.5 -25,22 q-9.5,14.5 -9.5,38.5 h215 q8,-24 23,-38.5 q15,-14.5 34.5,-22.5 q19.5,-8 41.5,-10.5 q22,-2.5 45,-2.5 q20,0 39.5,1 q19.5,1 36.5,1 l4,-18 l330,330 q39,-9 73,-29 Z" fill="#E81224" transform="matrix(1,0,0,-1,0,1438)"/>
</svg>
