<?xml version='1.0' encoding='ASCII'?>
<svg width="2300" height="2300" preserveAspectRatio="xMinYMin slice" viewBox="256 -431 2300 2300" version="1.1" xmlns="http://www.w3.org/2000/svg">
  <path d="M256,-431 v359 q0,115 35,223.5 q35,108.5 104,201.5 q-69,117 -104,245.5 q-35,128.5 -35,264.5 q0,139 36,267.5 q36,128.5 101.5,240 q65.5,111.5 157.5,203.5 q92,92 203.5,157.5 q111.5,65.5 240,101.5 q128.5,36 267.5,36 q146,0 283,-41 q137,-41 255.5,-116.5 q118.5,-75.5 214,-182 q95.5,-106.5 157.5,-238.5 q82,-9 152,-46 q70,-37 121.5,-94.5 q51.5,-57.5 81,-131.5 q29.5,-74 29.5,-156 v-575 h-144 q-38,0 -72,9 v-153 h-104 q32,-107 32,-216 v-359 h-2012 Z" fill="#000000" transform="matrix(1,0,0,-1,0,1438)"/>
  <path d="M575,341 q-86,113 -130.5,246.5 q-44.5,133.5 -44.5,275.5 q0,72 12,143 l183,116 l-117,100 q52,115 134,208 q82,93 184,158.5 q102,65.5 221,101 q119,35.5 245,35.5 q126,0 245,-35.5 q119,-35.5 221,-101 q102,-65.5 183.5,-158.5 q81.5,-93 134.5,-208 l-90,-100 l157,-116 q12,-71 12,-143 q0,-142 -45,-275.5 q-45,-133.5 -131,-246.5 h-1374 Z" fill="#69EAFF" transform="matrix(1,0,0,-1,0,1438)"/>
  <path d="M1550,503 q119,0 223.5,-45.5 q104.5,-45.5 182.5,-123.5 q78,-78 123.5,-182.5 q45.5,-104.5 45.5,-223.5 v-215 h-360 l-109,108 l-106,-108 h-216 l-70,45 l-74,-45 h-215 l-100,116 l-116,-116 h-144 l-173,431 q33,82 87.5,148 q54.5,66 124,113 q69.5,47 151.5,72.5 q82,25.5 170,25.5 h575 Z" fill="#F7630C" transform="matrix(1,0,0,-1,0,1438)"/>
  <path d="M1550,503 q112,0 215,-41.5 q103,-41.5 184,-119.5 q-79,-105 -184,-180 l-78,-139 l-137,26 q-53,-18 -106.5,-29.5 q-53.5,-11.5 -109.5,-16.5 l-72,-66 l-72,66 q-55,5 -109,16.5 q-54,11.5 -106,29.5 l-146,-7 l-70,120 q-105,75 -184,180 q81,78 184.5,119.5 q103.5,41.5 215.5,41.5 h575 Z" fill="#0099BC" transform="matrix(1,0,0,-1,0,1438)"/>
  <path d="M615,-72 l-111,-34 l-104,34 q0,112 42,216 h173 v-216 Z" fill="#8CBD18" transform="matrix(1,0,0,-1,0,1438)"/>
  <path d="M615,-287 h-215 v215 h215 v-215 Z" fill="#FFB900" transform="matrix(1,0,0,-1,0,1438)"/>
  <path d="M1334,3 v-290 h-144 v290 q36,-3 72,-3 q36,0 72,3 Z" fill="#E5E5E5" transform="matrix(1,0,0,-1,0,1438)"/>
  <path d="M759,162 q99,-70 216,-113 v-336 h-216 v449 Z M1550,49 q57,21 111,49 q54,28 104,64 v-449 h-215 v336 Z" fill="#1F1F1F" transform="matrix(1,0,0,-1,0,1438)"/>
  <path d="M1945,791 q15,0 25.5,-10.5 q10.5,-10.5 10.5,-25.5 q0,-5 -10.5,-25.5 q-10.5,-20.5 -26,-49.5 q-15.5,-29 -34.5,-62 q-19,-33 -36.5,-63 q-17.5,-30 -31,-53 q-13.5,-23 -18.5,-31 q-44,-76 -104,-136.5 q-60,-60.5 -133,-103 q-73,-42.5 -155.5,-65 q-82.5,-22.5 -169.5,-22.5 q-87,0 -169,22.5 q-82,22.5 -154,64 q-72,41.5 -132.5,101.5 q-60.5,60 -103.5,135 q-5,8 -18.5,31.5 q-13.5,23.5 -31.5,54 q-18,30.5 -37.5,64 q-19.5,33.5 -35.5,62.5 q-16,29 -26.5,50 q-10.5,21 -10.5,26 q0,14 11,25 q11,11 25,11 h108 v647 q0,29 21.5,50.5 q21.5,21.5 50.5,21.5 q17,0 34,-10 l325,-206 h288 l326,206 q17,10 33,10 q29,0 50.5,-21.5 q21.5,-21.5 21.5,-50.5 v-647 h108 Z" fill="#757575" transform="matrix(1,0,0,-1,0,1438)"/>
  <path d="M687,1078 v360 l245,-155 q6,-4 9.5,-11 q3.5,-7 3.5,-14 q0,-7 -3.5,-14 q-3.5,-7 -9.5,-11 l-245,-155 Z M1593,1233 q-14,9 -14,25 q0,16 14,25 l244,155 v-360 l-244,155 Z" fill="#A6A6A6" transform="matrix(1,0,0,-1,0,1438)"/>
  <path d="M975,1006 q29,0 50.5,-21 q21.5,-21 21.5,-50 v-72 q0,-29 -21.5,-50.5 q-21.5,-21.5 -50.5,-21.5 q-30,0 -51,21 q-21,21 -21,51 v72 q0,29 21.5,50 q21.5,21 50.5,21 Z M1622,863 q0,-29 -21.5,-50.5 q-21.5,-21.5 -50.5,-21.5 q-30,0 -51,21 q-21,21 -21,51 v72 q0,29 21.5,50 q21.5,21 50.5,21 q29,0 50.5,-21 q21.5,-21 21.5,-50 v-72 Z M1406,431 q0,-30 -11.5,-56 q-11.5,-26 -31,-45.5 q-19.5,-19.5 -45.5,-30.5 q-26,-11 -56,-11 q-30,0 -56,11 q-26,11 -45.5,30.5 q-19.5,19.5 -31,45.5 q-11.5,26 -11.5,56 q0,30 11.5,56 q11.5,26 31,45.5 q19.5,19.5 45.5,31 q26,11.5 56,11.5 q30,0 56,-11.5 q26,-11.5 45.5,-31 q19.5,-19.5 31,-45.5 q11.5,-26 11.5,-56 Z" fill="#000000" transform="matrix(1,0,0,-1,0,1438)"/>
  <path d="M1514,719 q37,0 69.5,-14 q32.5,-14 57,-38.5 q24.5,-24.5 38.5,-57.5 q14,-33 14,-70 q0,-37 -14,-70 q-14,-33 -38.5,-57.5 q-24.5,-24.5 -57,-38.5 q-32.5,-14 -69.5,-14 h-72 q-36,0 -68.5,13.5 q-32.5,13.5 -56.5,37 q-24,23.5 -39,54.5 q-15,31 -16,67 q-2,-36 -16.5,-67 q-14.5,-31 -38.5,-54.5 q-24,-23.5 -56,-37 q-32,-13.5 -68,-13.5 h-72 q-37,0 -70,14 q-33,14 -57.5,38.5 q-24.5,24.5 -38.5,57.5 q-14,33 -14,70 q0,37 14,70 q14,33 38.5,57.5 q24.5,24.5 57.5,38.5 q33,14 70,14 h107 q1,0 22,-5 q21,-5 47,-11.5 q26,-6.5 48.5,-12.5 q22.5,-6 26.5,-7 q4,1 26.5,7 q22.5,6 48.5,12.5 q26,6.5 47,11.5 q21,5 22,5 h108 Z" fill="#FFFFFF" transform="matrix(1,0,0,-1,0,1438)"/>
  <path d="M1406,719 l-110,-130 q-6,-7 -16,-10.5 q-10,-3.5 -18,-3.5 q-8,0 -18,3.5 q-10,3.5 -16,10.5 l-110,130 h288 Z" fill="#E84757" transform="matrix(1,0,0,-1,0,1438)"/>
  <path d="M2125,1150 q59,0 111.5,-22.5 q52.5,-22.5 91.5,-61.5 q39,-39 61.5,-91.5 q22.5,-52.5 22.5,-111.5 v-432 q-30,0 -56,11.5 q-26,11.5 -45.5,31 q-19.5,19.5 -31,45.5 q-11.5,26 -11.5,56 v288 q0,38 -19,71 q-19,33 -52,53 v-699 q-30,0 -56,11 q-26,11 -45.5,30.5 q-19.5,19.5 -31,45.5 q-11.5,26 -11.5,56 v468 q0,22 -8.5,42 q-8.5,20 -23.5,34 q-15,14 -34.5,22.5 q-19.5,8.5 -41.5,8.5 h-1532 v5 q0,15 8,45 q8,30 19,63 q11,33 22,62 q11,29 17,41 h1567 q8,-18 14,-36 q6,-18 13,-36 h52 Z" fill="#E81224" transform="matrix(1,0,0,-1,0,1438)"/>
</svg>
