<svg xmlns="http://www.w3.org/2000/svg" viewBox="0 0 36 36">
  <path d="m0 34.873v-5.6191q0-1.2522 0.2661-2.4496 0.2661-1.1974 0.7826-2.3009 0.5166-1.1035 1.26-2.0896 0.7435-0.98608 1.7139-1.7843-0.6417-1.8313-0.6417-3.7565v-12.381q0-0.6887 0.2661-1.2991t0.72-1.0722 1.0722-0.72782q0.6182-0.26609 1.3069-0.26609 0.9548 0 1.7374 0.50087l3.193 2.0191q1.4557-0.28173 2.9426-0.28173 1.487 0 2.9426 0.28173l3.2713-2.0661q0.36-0.21913 0.8061-0.33652t0.8531-0.11739q0.6887 0 1.3069 0.26609 0.6183 0.26608 1.08 0.72782 0.4618 0.46174 0.7278 1.0722 0.2661 0.61043 0.2661 1.2991v2.2539h10.127v2.2539q0 1.2209-0.6027 2.2539-0.6026 1.033-1.6513 1.6435v0.59479q0 0.92347-0.3521 1.7452-0.3522 0.82174-0.9626 1.4322-0.6105 0.61043-1.4322 0.97043t-1.7452 0.36h-3.4435q-0.063 0.67304-0.2113 1.3304-0.1487 0.65739-0.3678 1.2991 0.9548 0.79826 1.7061 1.7765 0.7513 0.97825 1.2678 2.0896 0.5165 1.1113 0.7826 2.3165 0.2661 1.2052 0.2661 2.4417v5.6191z"/>
  <path d="m21.537 13.367q0.2191 0.10956 0.6104 0.32869t0.7983 0.48522q0.4069 0.26609 0.7513 0.54 0.3443 0.27391 0.4695 0.47739l-0.5478 0.54782q0 0.70435-0.2035 1.5339-0.2034 0.82956-0.626 1.5339-0.4227 0.70435-1.0566 1.1739t-1.4791 0.46956h-11.254q-0.8139 0-1.4478-0.47739t-1.0643-1.1896q-0.4305-0.71217-0.6496-1.5339-0.2191-0.82173-0.2191-1.5104v-1.127l1.7843-1.2522zm-16.654 9.5322q0.5791-0.59478 1.2444-1.0487 0.6652-0.45391 1.4165-0.79825l12.287 7.3722-0.7043 4.1948h-4.5235t-0.2426-0.0704-0.6026-0.17218q-0.36-0.10173-0.7826-0.21913-0.4226-0.11739-0.7983-0.22695-0.3756-0.10957-0.6496-0.18783-0.2739-0.0783-0.3365-0.0939l-5.9165-5.8852zm17.609-19.518q0.4539 0 0.7904 0.32869 0.3365 0.3287 0.3365 0.78261v4.5861h-18v-4.5861q0-0.45391 0.3365-0.78261 0.3365-0.32869 0.7904-0.32869 0.1252 0 0.2739 0.0313t0.2583 0.10957l5.1026 3.2243h4.4921l5.1026-3.2243q0.094-0.0626 0.2427-0.10174 0.1486-0.0391 0.2739-0.0391z" fill="#757575"/>
  <path d="m27 32.619h-7.873l-11.583-11.567q0.8765-0.40696 1.8078-0.60261t1.9017-0.19565h6.7461q1.8626 0 3.4983 0.71217 1.6356 0.71217 2.8565 1.933 1.2208 1.2209 1.933 2.8565t0.7122 3.4982zm-24.746-3.3652q0-1.8 0.6808-3.4435 0.6809-1.6435 1.9487-2.9113l9.72 9.72h-12.35z" fill="#1f1f1f"/>
  <path d="m6.4487 9.5948-0.8295-0.50086v-4.5861l3.8347 2.4261q0.2035 0.12522 0.2035 0.37565 0 0.26609-0.2035 0.39131zm13.351-1.8939q-0.2191-0.14087-0.2191-0.39131 0-0.23478 0.2191-0.37565l3.8191-2.4261v4.5704l-0.7826 0.54783z" fill="#a6a6a6"/>
  <path d="m10.127 16.873q-0.4696 0-0.7983-0.3287-0.3287-0.32869-0.3287-0.79826v-1.127q0-0.45391 0.3365-0.79043 0.3366-0.33652 0.7905-0.33652t0.7904 0.33652 0.3365 0.79043v1.127q0 0.46957-0.3287 0.79826-0.3287 0.3287-0.7982 0.3287zm9 0q-0.4696 0-0.7983-0.3287-0.3287-0.32869-0.3287-0.79826v-1.127q0-0.45391 0.3365-0.79043t0.7905-0.33652q0.4539 0 0.7904 0.33652t0.3365 0.79043v1.127q0 0.46957-0.3287 0.79826-0.3287 0.3287-0.7982 0.3287z"/>
  <path d="m33.746 9q0 0.46957-0.18 0.87652-0.18 0.40696-0.4852 0.71217-0.3052 0.30522-0.7121 0.48522-0.407 0.18-0.8766 0.18h-4.4921q-0.4696 0-0.8765 0.17217-0.407 0.17218-0.7122 0.47739-0.3052 0.30522-0.4852 0.71218-0.18 0.40695-0.18 0.87652h6.746q0 0.46956-0.1721 0.87652-0.1722 0.40695-0.4774 0.71217-0.3052 0.30521-0.7122 0.48521t-0.8765 0.18h-5.6348v-1.127h-18v-3.3652l1.8156-1.4087h14.244l1.9408 1.4087q0-0.46956 0.18-0.87652 0.18-0.40695 0.4852-0.71217t0.7122-0.48522 0.8765-0.18z" fill="#e81224"/>
  <path d="m20.254 19.127q0.673 0 1.2757-0.25043 0.6026-0.25043 1.0565-0.68869t0.7278-1.033q0.2739-0.59478 0.3052-1.2678v0.98609q0 1.8626-0.7043 3.5061-0.7044 1.6435-1.9252 2.8643-1.2209 1.2209-2.8644 1.9252-1.6435 0.70434-3.5061 0.70434t-3.4982-0.71217q-1.6357-0.71217-2.8565-1.933-1.2209-1.2209-1.9331-2.8565-0.7121-1.6356-0.7121-3.4982v-0.98609q0.016 0.67304 0.2974 1.2678 0.2817 0.59479 0.7356 1.033t1.0565 0.68869 1.2913 0.25043h2.2539q0.4226 0 0.7592-0.17217 0.3365-0.17217 0.6417-0.38348 0.3052-0.2113 0.6417-0.3913 0.3366-0.18 0.7592-0.18 0.1878 0 0.3834-8e-3 0.1957-8e-3 0.3835-8e-3 0.36 0 0.7122 0.0548t0.6809 0.27391q0.2191 0.14087 0.4226 0.28957 0.2034 0.14869 0.4147 0.26608t0.4383 0.18783q0.227 0.0704 0.5087 0.0704zm-5.6348-13.508q2.52 0 4.8287 0.88435 2.3087 0.88434 4.1713 2.5748v2.1756h-18v-2.1756q1.8626-1.6748 4.1713-2.567 2.3086-0.89217 4.8286-0.89217z" fill="#383838"/>
</svg>
